<?xml version="1.0" encoding="UTF-8"?>
<!DOCTYPE svg PUBLIC "-//W3C//DTD SVG 1.1//EN" "http://www.w3.org/Graphics/SVG/1.1/DTD/svg11.dtd">
<!-- Creator: CorelDRAW X7 -->
<svg xmlns="http://www.w3.org/2000/svg" xml:space="preserve" width="141.429mm" height="184.286mm" version="1.1" style="shape-rendering:geometricPrecision; text-rendering:geometricPrecision; image-rendering:optimizeQuality; fill-rule:evenodd; clip-rule:evenodd"
viewBox="0 0 14143 18429"
 xmlns:xlink="http://www.w3.org/1999/xlink">
 <defs>
  <style type="text/css">
   <![CDATA[
    .fil0 {fill:#FFE7E7}
    .fil1 {fill:#F74F2B;fill-rule:nonzero}
   ]]>
  </style>
 </defs>
 <g id="Слой_x0020_1">
  <metadata id="CorelCorpID_0Corel-Layer"/>
  <path id="Прямоугольник_скругл._углы_102" class="fil0" d="M3286 1857l8318 0 2539 2552 0 12591c0,800 -629,1429 -1429,1429l-9428 0c-800,0 -1429,-629 -1429,-1429l0 -13714c0,-800 629,-1429 1429,-1429z"/>
  <path class="fil1" d="M4197 9929l0 1000 -586 0 0 -2844 1109 0c214,0 402,39 564,117 162,78 286,190 374,334 87,144 130,308 130,492 0,278 -95,498 -286,660 -190,160 -454,241 -792,241l-513 0zm0 -476l523 0c155,0 273,-37 355,-109 81,-73 122,-177 122,-312 0,-140 -41,-252 -123,-338 -82,-86 -196,-130 -340,-133l-537 0 0 892zm1994 1476l0 -2844 875 0c250,0 474,56 671,169 197,112 351,273 462,480 111,208 166,444 166,708l0 132c0,264 -55,499 -163,704 -109,206 -262,366 -460,479 -198,113 -422,171 -670,172l-881 0zm586 -2368l0 1896 283 0c229,0 404,-75 526,-224 120,-150 182,-364 185,-642l0 -150c0,-289 -60,-508 -180,-657 -119,-148 -295,-223 -525,-223l-289 0zm3724 1204l-1125 0 0 1164 -586 0 0 -2844 1852 0 0 476 -1266 0 0 732 1125 0 0 472zm2649 -4051l-3007 0c-518,0 -982,-204 -1317,-540 -335,-335 -540,-799 -540,-1317l0 -3000 -6429 0c-282,0 -532,110 -711,289 -179,179 -289,429 -289,711l0 14572c0,281 110,532 289,711 179,179 429,289 711,289l10286 0c282,0 532,-110 711,-289 179,-179 289,-430 289,-711l2 -2c0,-17 24,-5549 5,-10713zm-3007 -857l3004 0 -2 -248 -3751 -3752 -251 0 0 3000c0,282 109,532 289,711 179,180 429,289 711,289zm-8286 -4857l7714 0 178 0 125 126 4000 4000 123 123 1 178c29,5462 1,11923 0,12002l2 0c0,518 -205,982 -540,1317 -335,335 -799,540 -1317,540l-10286 0c-518,0 -982,-205 -1317,-540 -335,-335 -540,-799 -540,-1317l0 -14572c0,-518 205,-982 540,-1317 335,-335 799,-540 1317,-540z"/>
 </g>
</svg>
