<?xml version="1.0" encoding="UTF-8"?>
<!DOCTYPE svg PUBLIC "-//W3C//DTD SVG 1.1//EN" "http://www.w3.org/Graphics/SVG/1.1/DTD/svg11.dtd">
<!-- Creator: CorelDRAW X7 -->
<svg xmlns="http://www.w3.org/2000/svg" xml:space="preserve" width="176.636mm" height="209.553mm" version="1.1" style="shape-rendering:geometricPrecision; text-rendering:geometricPrecision; image-rendering:optimizeQuality; fill-rule:evenodd; clip-rule:evenodd"
viewBox="0 0 17664 20955"
 xmlns:xlink="http://www.w3.org/1999/xlink">
   <path class="fil0" d="M17664 13912c0,582 -386,982 -982,982l0 0c-444,0 -776,-223 -912,-585 -45,-119 -69,-252 -69,-397l0 -5100 -5888 3680 0 5540 5957 -3723 395 -247c459,-286 1063,-145 1349,314 285,458 144,1064 -314,1349l-7851 4907 -517 323 -518 -323 -7850 -4907c-444,-275 -590,-848 -343,-1301 9,-16 -10,16 0,0 -78,-144 -121,-317 -121,-512l-6 -6870c-3,-153 39,-316 139,-490 -264,-455 -120,-1042 331,-1322l7850 -4907 518 -323 517 323 7851 4907c450,280 594,867 330,1322 89,154 132,322 132,488l2 6872zm-15770 397l5956 3723 0 -5540 -5887 -3680 0 5100c0,143 -26,280 -69,397zm13725 -7757l-6787 -4242 -6787 4242 0 0 6787 4242 6787 -4242z"/>
</svg>
