<?xml version="1.0" encoding="UTF-8"?>
<!DOCTYPE svg PUBLIC "-//W3C//DTD SVG 1.1//EN" "http://www.w3.org/Graphics/SVG/1.1/DTD/svg11.dtd">
<!-- Creator: CorelDRAW X7 -->
<svg xmlns="http://www.w3.org/2000/svg" xml:space="preserve" width="210.054mm" height="210.032mm" version="1.1" style="shape-rendering:geometricPrecision; text-rendering:geometricPrecision; image-rendering:optimizeQuality; fill-rule:evenodd; clip-rule:evenodd"
viewBox="0 0 21005 21003"
 xmlns:xlink="http://www.w3.org/1999/xlink"
 enable-background="new 0 0 9.789 9.788">
  <path class="fil0" d="M13942 10501l6348 -6348c951,-951 951,-2491 0,-3442 -948,-948 -2491,-948 -3441,0l-6348 6351 -6347 -6349c-948,-948 -2491,-948 -3441,0 -951,951 -951,2491 0,3442l6348 6348 -6348 6347c-951,950 -951,2490 0,3441 474,474 1098,712 1721,712 622,0 1246,-238 1720,-712l6349 -6349 6348 6349c474,474 1099,712 1721,712 622,0 1246,-238 1721,-712 950,-951 950,-2491 0,-3441l-6351 -6349z"/>
</svg>
