<?xml version="1.0" encoding="UTF-8"?>
<!DOCTYPE svg PUBLIC "-//W3C//DTD SVG 1.1//EN" "http://www.w3.org/Graphics/SVG/1.1/DTD/svg11.dtd">
<!-- Creator: CorelDRAW X7 -->
<svg xmlns="http://www.w3.org/2000/svg" xml:space="preserve" width="9.878mm" height="9.878mm" version="1.1" style="shape-rendering:geometricPrecision; text-rendering:geometricPrecision; image-rendering:optimizeQuality; fill-rule:evenodd; clip-rule:evenodd"
viewBox="0 0 988 988"
 xmlns:xlink="http://www.w3.org/1999/xlink">
 <defs>
  <style type="text/css">
   <![CDATA[
    .fil0 {fill:#36398b;fill-rule:nonzero}
   ]]>
  </style>
 </defs>
 <g id="__x0023_Layer_x0020_1">
  <metadata id="CorelCorpID_0Corel-Layer"/>
  <path class="fil0" d="M280 489l209 0 0 -270 71 0 0 305 0 36 -36 0 -244 0 0 -71zm708 5c0,136 -56,260 -145,349 -89,90 -213,145 -349,145 -136,0 -260,-55 -349,-145 -90,-89 -145,-213 -145,-349 0,-136 55,-260 145,-349 89,-90 213,-145 349,-145 136,0 260,55 349,145 89,89 145,213 145,349zm-195 299c77,-76 124,-182 124,-299 0,-117 -47,-223 -124,-299 -76,-77 -182,-124 -299,-124 -117,0 -223,47 -299,124 -77,76 -124,182 -124,299 0,117 47,223 124,299 76,77 182,124 299,124 117,0 223,-47 299,-124z"/>
 </g>
</svg>
