<?xml version="1.0" encoding="UTF-8"?>
<!DOCTYPE svg PUBLIC "-//W3C//DTD SVG 1.1//EN" "http://www.w3.org/Graphics/SVG/1.1/DTD/svg11.dtd">
<!-- Creator: CorelDRAW X7 -->
<svg xmlns="http://www.w3.org/2000/svg" xml:space="preserve" width="7.658mm" height="8.016mm" version="1.1" style="shape-rendering:geometricPrecision; text-rendering:geometricPrecision; image-rendering:optimizeQuality; fill-rule:evenodd; clip-rule:evenodd"
viewBox="0 0 766 802"
 xmlns:xlink="http://www.w3.org/1999/xlink">
 <defs>
  <style type="text/css">
   <![CDATA[
    .fil0 {fill:#ffffff;fill-rule:nonzero}
   ]]>
  </style>
 </defs>
 <g id="РЎР_x00bb_РѕР_x2116__x0020_1">
  <metadata id="CorelCorpID_0Corel-Layer"/>
  <g>
   <path class="fil0" d="M486 323l0 -1 0 0 0 -1c16,-45 32,-80 48,-115 14,-32 27,-63 41,-99l-101 37c0,3 0,6 0,10 0,25 -10,47 -27,64l0 0 0 0 0 0c-10,11 -23,19 -38,23l0 508 165 0c14,0 26,12 26,26 0,15 -12,27 -26,27l-191 0 -191 0c-15,0 -27,-12 -27,-27 0,-14 12,-26 27,-26l164 0 0 -508c-14,-4 -27,-12 -38,-23l0 0c-4,-4 -7,-8 -11,-13l-121 44 1 0 0 1 97 253 0 0 0 1c4,12 6,22 6,33l0 0c-1,11 -4,21 -10,33 -14,25 -33,47 -57,63 -23,14 -49,23 -78,23 -29,0 -56,-9 -79,-24 -24,-15 -43,-38 -57,-64l0 0c-6,-11 -8,-20 -9,-31l0 0c0,-10 2,-20 6,-32l4 -12 1 -1c16,-45 32,-81 47,-117 14,-29 27,-59 40,-94l-62 23c-13,5 -29,-2 -34,-16 -5,-14 3,-29 16,-34l274 -99 0 -1c0,-25 10,-48 26,-65l0 0 0 0 0 0c17,-17 40,-27 65,-27 25,0 48,11 64,27l0 0 0 0 0 0c3,2 4,4 6,7l258 -94c14,-5 29,2 34,15 5,14 -2,29 -16,34l-67 25c0,1 0,2 1,3l0 0 92 241c1,1 1,3 1,4l3 6c0,1 1,2 1,3 4,13 6,23 6,33 -1,11 -4,21 -10,33 -14,26 -33,48 -57,63 -23,15 -49,23 -78,23 -29,0 -56,-9 -79,-24 -24,-15 -44,-37 -57,-64l0 0 0 0c-6,-11 -9,-20 -9,-31 -1,-10 1,-19 5,-30l0 -1 1 -1 0 0 0 0 4 -11zm63 -18l144 -1 -69 -178c-14,38 -28,69 -42,101 -11,25 -22,50 -33,78zm163 52l-182 0c-1,3 -2,5 -1,7 0,2 1,5 3,9l0 0c9,18 23,34 39,44 14,10 31,15 50,15 18,0 35,-5 49,-15 16,-10 30,-25 39,-43 3,-4 4,-7 4,-10l0 0 -1 -7zm-564 -60c-14,37 -27,68 -41,100 -12,25 -23,50 -34,78l144 0 -69 -178zm-94 231c-1,3 -1,5 -1,7l0 0 1 -7zm2 16l0 0 0 0c9,18 23,33 39,44 14,9 32,15 50,15 18,0 35,-5 49,-15 16,-10 30,-25 39,-43 3,-5 4,-8 4,-10l0 -1c0,-1 0,-3 -1,-6l-182 0 2 16zm354 -418c-7,-7 -16,-11 -27,-11 -11,0 -20,4 -27,11l0 0c-7,7 -12,17 -12,28 0,10 5,20 12,27l0 0 0 0c7,7 16,11 27,11 11,0 20,-4 27,-11l0 0c7,-7 11,-17 11,-27 0,-11 -4,-21 -11,-28l0 0z"/>
  </g>
 </g>
</svg>
