<?xml version="1.0" encoding="UTF-8"?>
<!DOCTYPE svg PUBLIC "-//W3C//DTD SVG 1.1//EN" "http://www.w3.org/Graphics/SVG/1.1/DTD/svg11.dtd">
<!-- Creator: CorelDRAW X7 -->
<svg xmlns="http://www.w3.org/2000/svg" xml:space="preserve" width="9.525mm" height="6.627mm" version="1.1" style="shape-rendering:geometricPrecision; text-rendering:geometricPrecision; image-rendering:optimizeQuality; fill-rule:evenodd; clip-rule:evenodd"
viewBox="0 0 953 663"
 xmlns:xlink="http://www.w3.org/1999/xlink">
 <defs>
  <style type="text/css">
   <![CDATA[
    .fil0 {fill:#36398b;fill-rule:nonzero}
   ]]>
  </style>
 </defs>
 <g id="__x0023_Layer_x0020_1">
  <metadata id="CorelCorpID_0Corel-Layer"/>
  <path class="fil0" d="M178 308l-60 0 0 -71 60 0 0 71zm-119 0l-59 0 0 -71 59 0 0 71zm119 355l-60 0 0 -71 60 0 0 71zm-119 -119l-59 0 0 -70 59 0 0 70zm355 0l-296 0 0 -70 296 0 0 70zm-296 -118l-59 0 0 -71 59 0 0 71zm119 0l-59 0 0 -71 59 0 0 71zm634 -312l-440 274 -24 14 -20 -19 -325 -323 -61 -60 86 0 830 0 36 0 0 35 0 30 0 3 -1 4 -119 563 -6 28 -28 0 -562 0 0 -71 533 0 101 -478zm-454 199l390 -242 -635 0 245 242z"/>
 </g>
</svg>
