<?xml version="1.0" encoding="UTF-8"?>
<!DOCTYPE svg PUBLIC "-//W3C//DTD SVG 1.1//EN" "http://www.w3.org/Graphics/SVG/1.1/DTD/svg11.dtd">
<!-- Creator: CorelDRAW X7 -->
<svg xmlns="http://www.w3.org/2000/svg" xml:space="preserve" width="9.1808mm" height="9.17mm" version="1.1" style="shape-rendering:geometricPrecision; text-rendering:geometricPrecision; image-rendering:optimizeQuality; fill-rule:evenodd; clip-rule:evenodd"
viewBox="0 0 918 917"
 xmlns:xlink="http://www.w3.org/1999/xlink">
 <defs>
  <style type="text/css">
   <![CDATA[
    .fil0 {fill:#474a95;fill-rule:nonzero}
   ]]>
  </style>
 </defs>
 <g id="Р_x00a0_Р_x00b5_Р_x00b6_РёРј_x0020_РёР·РѕР_x00bb_СЏС_x2020_РёРё">
  <metadata id="CorelCorpID_0Corel-Layer"/>
  <path class="fil0" d="M115 114c-27,28 -42,64 -44,100 -2,37 9,75 33,106 60,76 158,174 231,247l0 0 8 8c38,38 83,83 126,124 45,42 90,83 130,114 31,24 69,35 105,33 37,-2 73,-17 100,-44l44 -44 0 -15 -132 -132 -13 -2 -76 35 -9 4 -10 -1 -34 -4 -12 -1 -9 -9 -270 -269 -9 -9 -2 -12 -4 -34 -1 -10 4 -10 37 -75 -1 -12 -132 -132 -16 0 -44 44zm-115 97c3,-54 25,-106 65,-146l55 -55 10 -10 15 0 45 0 14 0 11 10 150 151 8 8 2 12 4 35 2 10 -5 9 -37 76 2 12 253 251 13 2 75 -35 10 -4 9 1 35 4 12 1 9 9 151 152 10 10 0 14 0 45 0 15 -10 10 -54 54c-40,40 -92,62 -146,65 -53,3 -108,-13 -153,-49 -41,-32 -88,-74 -134,-118 -48,-45 -92,-89 -128,-125l-8 -8 0 -1c-74,-74 -174,-174 -236,-253 -36,-45 -52,-99 -49,-152zm572 -98l196 0c41,0 78,16 105,43 27,27 43,64 43,105 0,40 -16,77 -43,104 -27,27 -64,44 -105,44l-112 0 0 -71 112 0c22,0 41,-9 55,-23 14,-14 23,-33 23,-54 0,-22 -9,-41 -23,-55 -14,-14 -33,-23 -55,-23l-196 0 52 53 -50 49 -112 -112 -25 -25 25 -25 112 -113 50 50 -52 53z"/>
 </g>
</svg>
