<?xml version="1.0" encoding="UTF-8"?>
<!DOCTYPE svg PUBLIC "-//W3C//DTD SVG 1.1//EN" "http://www.w3.org/Graphics/SVG/1.1/DTD/svg11.dtd">
<!-- Creator: CorelDRAW X7 -->
<svg xmlns="http://www.w3.org/2000/svg" xml:space="preserve" width="5.771mm" height="5.3018mm" version="1.1" style="shape-rendering:geometricPrecision; text-rendering:geometricPrecision; image-rendering:optimizeQuality; fill-rule:evenodd; clip-rule:evenodd"
viewBox="0 0 577 530"
 xmlns:xlink="http://www.w3.org/1999/xlink">
 <defs>
  <style type="text/css">
   <![CDATA[
    .fil0 {fill:#8e9aa9;fill-rule:nonzero}
   ]]>
  </style>
 </defs>
 <g id="Слой_x0020_1">
  <metadata id="CorelCorpID_0Corel-Layer"/>
  <path class="fil0" d="M544 285l3 2 -19 20 -199 204c-5,6 -12,10 -19,13 -7,3 -15,5 -23,5 -6,0 -13,-1 -19,-3l-5 4 -18 -19 -199 -204 -17 -18 2 -3c-8,-11 -14,-23 -19,-36 -8,-20 -12,-42 -12,-64 0,-49 20,-93 52,-125 32,-32 76,-52 125,-52 24,0 48,6 70,15 14,6 27,14 38,23 13,-12 27,-21 41,-29 24,-11 50,-18 77,-18l1 0c48,2 92,23 123,56 31,33 50,77 50,125 0,23 -4,46 -13,67 -5,13 -12,25 -20,37zm-252 189l190 -195 0 -2 7 -7c11,-12 20,-26 26,-41 6,-15 9,-31 9,-48 0,-34 -13,-66 -35,-89 -22,-23 -53,-38 -87,-39 -18,0 -36,4 -52,12 -16,9 -31,20 -42,35l-19 25 -21 -23c-12,-13 -26,-23 -42,-29 -15,-7 -32,-11 -49,-11 -35,0 -65,14 -88,37 -22,22 -36,53 -36,87 0,16 3,31 8,45 6,14 14,27 25,39l16 18 0 0 162 167 0 0 19 19c0,1 1,1 2,2 0,0 1,0 2,0 1,0 2,0 2,0 1,-1 2,-1 2,-2l1 0z"/>
 </g>
</svg>
