<?xml version="1.0" encoding="UTF-8"?>
<!DOCTYPE svg PUBLIC "-//W3C//DTD SVG 1.1//EN" "http://www.w3.org/Graphics/SVG/1.1/DTD/svg11.dtd">
<!-- Creator: CorelDRAW X7 -->
<svg xmlns="http://www.w3.org/2000/svg" xml:space="preserve" width="8.6038mm" height="10.573mm" version="1.1" style="shape-rendering:geometricPrecision; text-rendering:geometricPrecision; image-rendering:optimizeQuality; fill-rule:evenodd; clip-rule:evenodd"
viewBox="0 0 860 1057"
 xmlns:xlink="http://www.w3.org/1999/xlink">
 <defs>
  <style type="text/css">
   <![CDATA[
    .fil0 {fill:white;fill-rule:nonzero}
   ]]>
  </style>
 </defs>
 <g id="Слой_x0020_1">
  <metadata id="CorelCorpID_0Corel-Layer"/>
  <path class="fil0" d="M456 736l-55 -22 0 270 0 0 55 -248zm-34 -92l113 45 6 0 9 7 238 178 0 -727 -366 497zm-76 -21l376 -510 -624 510 248 0zm178 144l-58 262 -7 28 -29 0 -65 0 -37 0 0 -36 0 -325 -292 0 -36 0 0 -36 0 -33 0 -17 13 -11 722 -591 10 -8 13 0 66 0 36 0 0 36 0 886 0 37 -36 0 -33 0 -12 0 -10 -8 -245 -184z"/>
 </g>
</svg>
