<?xml version="1.0" encoding="UTF-8"?>
<!DOCTYPE svg PUBLIC "-//W3C//DTD SVG 1.1//EN" "http://www.w3.org/Graphics/SVG/1.1/DTD/svg11.dtd">
<!-- Creator: CorelDRAW X7 -->
<svg xmlns="http://www.w3.org/2000/svg" xml:space="preserve" width="5.644mm" height="5.469mm" version="1.1" style="shape-rendering:geometricPrecision; text-rendering:geometricPrecision; image-rendering:optimizeQuality; fill-rule:evenodd; clip-rule:evenodd"
viewBox="0 0 564 547"
 xmlns:xlink="http://www.w3.org/1999/xlink">
 <defs>
  <style type="text/css">
   <![CDATA[
    .fil0 {fill:#8D9AA9}
   ]]>
  </style>
 </defs>
 <g id="Слой_x0020_1">
  <metadata id="CorelCorpID_0Corel-Layer"/>
  <path class="fil0" d="M170 112l-112 -112 -50 50 105 106c-66,59 -113,129 -113,129 0,0 141,212 282,212 43,0 86,-20 125,-47l96 97 51 -51 -92 -91c61,-57 102,-120 102,-120 0,0 -141,-212 -282,-212 -38,0 -77,16 -112,39zm-6 95l52 53c-3,7 -4,16 -4,25 0,39 31,71 70,71 9,0 18,-2 26,-5l52 52c-22,15 -49,23 -78,23 -78,0 -141,-63 -141,-141 0,-29 9,-55 23,-78zm54 -47c19,-10 41,-16 64,-16 78,0 141,63 141,141 0,23 0,80 -15,65l-56 -56c1,-3 1,-6 1,-9 0,-39 -32,-70 -71,-70 -3,0 -7,2 -9,0l-55 -55z"/>
 </g>
</svg>
