<?xml version="1.0" encoding="UTF-8"?>
<!DOCTYPE svg PUBLIC "-//W3C//DTD SVG 1.1//EN" "http://www.w3.org/Graphics/SVG/1.1/DTD/svg11.dtd">
<!-- Creator: CorelDRAW X7 -->
<svg xmlns="http://www.w3.org/2000/svg" xml:space="preserve" width="5.644mm" height="4.233mm" version="1.1" style="shape-rendering:geometricPrecision; text-rendering:geometricPrecision; image-rendering:optimizeQuality; fill-rule:evenodd; clip-rule:evenodd"
viewBox="0 0 564 423"
 xmlns:xlink="http://www.w3.org/1999/xlink">
 <defs>
  <style type="text/css">
   <![CDATA[
    .fil0 {fill:#8D9AA9}
   ]]>
  </style>
 </defs>
 <g id="Слой_x0020_1">
  <metadata id="CorelCorpID_0Corel-Layer"/>
  <path class="fil0" d="M282 0c-141,0 -282,212 -282,212 0,0 141,211 282,211 141,0 282,-211 282,-211 0,0 -141,-212 -282,-212zm0 353c-78,0 -141,-63 -141,-141 0,-78 63,-141 141,-141 78,0 141,63 141,141 0,78 -63,141 -141,141zm0 -212c-39,0 -70,32 -70,71 0,39 31,70 70,70 39,0 71,-31 71,-70 0,-39 -32,-71 -71,-71z"/>
 </g>
</svg>
