<?xml version="1.0" encoding="UTF-8"?>
<!DOCTYPE svg PUBLIC "-//W3C//DTD SVG 1.1//EN" "http://www.w3.org/Graphics/SVG/1.1/DTD/svg11.dtd">
<!-- Creator: CorelDRAW X7 -->
<svg xmlns="http://www.w3.org/2000/svg" xml:space="preserve" width="5.639mm" height="5.469mm" version="1.1" style="shape-rendering:geometricPrecision; text-rendering:geometricPrecision; image-rendering:optimizeQuality; fill-rule:evenodd; clip-rule:evenodd"
viewBox="0 0 564 547"
 xmlns:xlink="http://www.w3.org/1999/xlink">
 <defs>
  <style type="text/css">
   <![CDATA[
    .fil0 {fill:#8D9AA9}
   ]]>
  </style>
 </defs>
 <g id="Слой_x0020_1">
  <metadata id="CorelCorpID_0Corel-Layer"/>
  <path class="fil0" d="M503 547l51 -51 -496 -496 -50 50 495 497zm-325 -440l48 49c17,-8 36,-12 56,-12 78,0 141,63 141,141 0,16 0,47 -5,61l50 53c58,-55 96,-114 96,-114 0,0 -141,-212 -282,-212 -35,0 -71,14 -104,34zm-73 56l55 52c-12,21 -19,44 -19,70 0,78 63,141 141,141 27,0 52,-7 73,-20l46 48c-38,25 -78,43 -119,43 -141,0 -282,-212 -282,-212 0,0 43,-65 105,-122z"/>
 </g>
</svg>
