<svg xmlns="http://www.w3.org/2000/svg" width="16.438" height="18.85" viewBox="0 0 16.438 18.85">
  <metadata><?xpacket begin="﻿" id="W5M0MpCehiHzreSzNTczkc9d"?>
<x:xmpmeta xmlns:x="adobe:ns:meta/" x:xmptk="Adobe XMP Core 5.6-c142 79.160924, 2017/07/13-01:06:39        ">
   <rdf:RDF xmlns:rdf="http://www.w3.org/1999/02/22-rdf-syntax-ns#">
      <rdf:Description rdf:about=""/>
   </rdf:RDF>
</x:xmpmeta>
                                                                                                    
                                                                                                    
                                                                                                    
                                                                                                    
                                                                                                    
                                                                                                    
                                                                                                    
                                                                                                    
                                                                                                    
                                                                                                    
                                                                                                    
                                                                                                    
                                                                                                    
                                                                                                    
                                                                                                    
                                                                                                    
                                                                                                    
                                                                                                    
                                                                                                    
                                                                                                    
                           
<?xpacket end="w"?></metadata>
<defs>
    <style>
      .cls-1 {
        fill: #fff;
        fill-rule: evenodd;
      }
    </style>
  </defs>
  <path id="Phone_handle" data-name="Phone handle" class="cls-1" d="M379.589,4196.79l-3.115,2.18a2.3,2.3,0,0,0-1.053,2.25,23.635,23.635,0,0,0,3.778,7.9,24.293,24.293,0,0,0,6.443,6.04,2.323,2.323,0,0,0,2.513-.25l3.115-2.18a1.215,1.215,0,0,0,.309-1.72l-2.191-2.99a1.286,1.286,0,0,0-1.768-.27l-1.752,1.23a19.692,19.692,0,0,1-2.515-2.76,18.875,18.875,0,0,1-1.866-3.22l1.752-1.23a1.215,1.215,0,0,0,.309-1.72l-2.191-2.99A1.286,1.286,0,0,0,379.589,4196.79Z" transform="translate(-375.375 -4196.56)"/>
</svg>
