<?xml version="1.0" encoding="UTF-8"?>
<!DOCTYPE svg PUBLIC "-//W3C//DTD SVG 1.1//EN" "http://www.w3.org/Graphics/SVG/1.1/DTD/svg11.dtd">
<!-- Creator: CorelDRAW X7 -->
<svg xmlns="http://www.w3.org/2000/svg" xml:space="preserve" width="5.556mm" height="5.556mm" version="1.1" style="shape-rendering:geometricPrecision; text-rendering:geometricPrecision; image-rendering:optimizeQuality; fill-rule:evenodd; clip-rule:evenodd"
viewBox="0 0 556 556"
 xmlns:xlink="http://www.w3.org/1999/xlink">
 <defs>
  <style type="text/css">
   <![CDATA[
    .fil0 {fill:#a8b2d9;fill-rule:nonzero}
   ]]>
  </style>
 </defs>
 <g id="Слой_x0020_1">
  <metadata id="CorelCorpID_0Corel-Layer"/>
  <path class="fil0" d="M238 53l0 0 0 0c-51,0 -97,21 -131,54 -33,34 -54,80 -54,131 0,51 21,98 54,131l0 0c32,32 76,53 125,54l6 0c51,0 96,-20 130,-53l1 -1 1 -1c32,-32 52,-76 53,-124l0 -6 0 0 0 0c0,-51 -20,-97 -54,-131 -33,-33 -80,-54 -131,-54zm11 -53c62,3 117,29 157,70 38,37 63,86 69,142l1 0 0 26 0 0 0 0 0 0c0,56 -19,108 -52,149l124 123c10,11 10,28 0,38 -10,10 -27,10 -38,0l-123 -124c-37,29 -83,48 -132,52l-1 0 -10 0 -6 0 0 0 0 0c-66,0 -125,-26 -168,-70l0 0c-43,-43 -70,-102 -70,-168 0,-66 27,-125 70,-168l0 0c43,-43 102,-70 168,-70l11 0 0 0z"/>
 </g>
</svg>
