<?xml version="1.0" encoding="UTF-8"?>
<!DOCTYPE svg PUBLIC "-//W3C//DTD SVG 1.1//EN" "http://www.w3.org/Graphics/SVG/1.1/DTD/svg11.dtd">
<!-- Creator: CorelDRAW X7 -->
<svg xmlns="http://www.w3.org/2000/svg" xml:space="preserve" width="6.291mm" height="7.055mm" version="1.1" style="shape-rendering:geometricPrecision; text-rendering:geometricPrecision; image-rendering:optimizeQuality; fill-rule:evenodd; clip-rule:evenodd"
viewBox="0 0 629 706"
 xmlns:xlink="http://www.w3.org/1999/xlink">
 <defs>
  <style type="text/css">
   <![CDATA[
    .fil0 {fill:#36398A}
   ]]>
  </style>
 </defs>
 <g id="Слой_x0020_1">
  <metadata id="CorelCorpID_0Corel-Layer"/>
  <path class="fil0" d="M526 212c0,-117 -95,-212 -211,-212 -117,0 -212,95 -212,212l0 35c0,117 95,212 212,212 116,0 211,-95 211,-212l0 -35zm-353 17c-4,-82 59,-153 142,-158 82,5 145,76 141,158 9,78 -47,149 -125,158 -78,9 -148,-46 -158,-124 -1,-11 -1,-23 0,-34zm-173 477l72 0c16,-61 71,-106 137,-106l211 0c66,0 121,45 137,106l72 0c-17,-101 -104,-177 -209,-177l-211 0c-105,0 -192,76 -209,177z"/>
 </g>
</svg>
