<?xml version="1.0" standalone="no"?>
<!DOCTYPE svg PUBLIC "-//W3C//DTD SVG 1.1//EN" "http://www.w3.org/Graphics/SVG/1.1/DTD/svg11.dtd" >
<svg xmlns="http://www.w3.org/2000/svg">
<metadata>Generated by IcoMoon</metadata>
<defs>
<font id="proline-ico" horiz-adv-x="1024">
<font-face units-per-em="1024" ascent="960" descent="-64" />
<missing-glyph horiz-adv-x="1024" />
<glyph unicode="&#x20;" horiz-adv-x="512" d="" />
<glyph unicode="&#xe801;" glyph-name="header-menu-icon1" horiz-adv-x="1282" d="M1281.76 879.416h-160.078v80.607h-880.997v-480.234h324.697l-106.719-160.078h-378.057v417.792h-80.607v-801.526h80.607v303.127h421.198l160.078 240.685h379.192v79.471h240.685v320.156zM961.604 559.26v0h-641.448v320.156h720.919v-22.706l-79.471-80.607v-216.843zM1201.153 639.867v0h-160.078v103.313l56.765 56.765h103.313v-160.078z" />
<glyph unicode="&#xe802;" glyph-name="header-menu-icon2" horiz-adv-x="768" d="M425.343 960h-82.537l-342.845-205.888v-239.447c0-247.61 145.12-473.453 370.962-575.943l6.349-2.721h13.605l6.349 2.721c224.935 102.491 370.962 328.333 370.962 575.943v239.447l-342.845 205.888zM703.791 514.664v0c0-217.679-125.166-416.312-320.17-511.547-194.097 95.235-319.263 293.867-319.263 511.547v203.167l296.588 177.771h46.257l296.588-177.771v-203.167zM245.758 540.060l-45.35-45.35 179.585-179.585 257.587 257.587-44.443 45.35-213.144-213.144z" />
<glyph unicode="&#xe803;" glyph-name="header-menu-icon3" horiz-adv-x="1260" d="M314.809 526.702h630.733v79.26h-630.733zM1165.461 684.106l-69.213-69.213-35.723 245.595-99.354 99.354h-661.991l-100.471-99.354-34.607-245.595-69.213 69.213h-94.889v-78.144h62.515l59.166-59.166-42.421-43.537v-245.595l-1.116-164.102h1.116v-157.404h235.548v157.404h630.733v-157.404h236.665v235.548h-1.116v79.26h1.116v236.665h-1.116v15.629l-42.421 43.537 59.166 59.166h62.515v78.144h-94.889zM157.404 408.37v0h39.072c51.352 0 96.005-32.374 111.634-78.144h-150.706v78.144zM236.665 14.301v0h-79.26v79.26h79.26v-79.26zM1024.802 14.301v0 79.26h78.144v-79.26h-78.144zM1102.946 408.37v0-78.144h-150.706c16.745 45.77 60.282 78.144 111.634 78.144h39.072zM1063.874 487.63v0c-108.285 0-196.476-88.191-196.476-197.593v-39.072h235.548v-79.26h-945.542v79.26h236.665v39.072c0 109.402-88.191 197.593-197.593 197.593h-22.327l60.282 60.282 39.072 275.737 58.050 56.933h597.243l58.050-56.933 39.072-275.737 60.282-60.282h-22.327z" />
<glyph unicode="&#xe804;" glyph-name="header-menu-icon4" d="M735.575 767.717c-87.979 0-159.632-71.653-159.632-159.632s71.653-159.632 159.632-159.632c88.886 0 160.539 71.653 160.539 159.632s-71.653 159.632-160.539 159.632zM735.575 511.943v0c-52.606 0-95.235 43.536-95.235 96.142s42.629 96.142 95.235 96.142c53.513 0 96.142-43.536 96.142-96.142s-42.629-96.142-96.142-96.142zM896.113 895.603h-479.802v64.397h-192.283v-64.397h-108.84l-50.792-50.792v-396.358h-64.397v-192.283h64.397v-77.095l50.792-50.792h332.868v-64.397h-383.66v31.745h-64.397v-127.887h64.397v32.652h383.66v-64.397h320.17v64.397h63.49v63.49h-63.49v64.397h191.376c35.373 0 64.397 28.117 64.397 63.49v575.943c0 70.746-57.141 127.887-127.887 127.887zM511.547 128.283v0h61.676v-127.887h-61.676v127.887zM703.83 0.397v0h-66.211v127.887h66.211v-127.887zM141.492 191.773v0l-13.605 13.605v613.13l13.605 13.605h324.705c-11.791-19.047-18.14-40.815-18.14-64.397v-319.263c0-70.746 57.141-128.794 127.887-128.794h320.17c23.582 0 44.443 7.256 63.49 18.14v-146.027h-818.112zM959.603 448.453v0c0-35.373-28.117-64.397-63.49-64.397h-320.17c-35.373 0-64.397 29.024-64.397 64.397v319.263c0 35.373 29.024 64.397 64.397 64.397h320.17c35.373 0 63.49-29.024 63.49-64.397v-319.263zM192.283 511.943h191.376v255.773h-191.376v-255.773zM255.773 704.227v0h64.397v-127.887h-64.397v127.887z" />
<glyph unicode="&#xe805;" glyph-name="header-menu-icon5" d="M896.352 620.829v274.893h-192.335v-82.559l-146.065 146.973h-90.724l-467.228-467.228v-77.115h127.921v-479.929h768.431v479.929h127.921v77.115l-127.921 127.921zM832.845 480.207v0-479.929h-640.51v479.929h-115.219l416.422 415.515h37.197l237.696-236.789v173.283h64.414v-237.696l114.312-114.312h-114.312zM399.185 336.863l45.362-45.362c36.29 36.29 99.796 36.29 136.086 0l44.455 45.362c-29.939 30.846-69.857 47.176-112.498 47.176s-83.466-16.33-113.405-47.176zM308.461 427.587l45.362-45.362c87.095 87.095 229.531 87.095 316.626 0l45.362 45.362c-112.498 112.498-294.852 112.498-407.35 0zM217.737 518.311l45.362-45.362c67.136 66.228 155.138 103.425 249.491 103.425 93.446 0 182.355-37.197 248.583-103.425l45.362 45.362c-78.93 78.023-183.262 121.57-293.945 121.57-111.59 0-215.923-43.547-294.852-121.57zM512.59 259.748c-48.084 0-87.095-39.011-87.095-87.095s39.011-87.095 87.095-87.095c48.084 0 87.095 39.011 87.095 87.095s-39.011 87.095-87.095 87.095zM512.59 149.972v0c-12.701 0-22.681 9.98-22.681 22.681s9.98 22.681 22.681 22.681c12.701 0 22.681-9.98 22.681-22.681s-9.98-22.681-22.681-22.681z" />
<glyph unicode="&#xe806;" glyph-name="header-menu-icon6" d="M768.227 384.057v288.425h-64.397v-288.425h-653.038l-50.792-50.792v-282.076l50.792-50.792h45.35v-64.397h63.49v64.397h704.737v-64.397h64.397v64.397h44.443l50.792 50.792v282.076l-50.792 50.792h-204.981zM959.603 77.492v0l-12.698-13.605h-869.81l-12.698 13.605v229.47l12.698 12.698h869.81l12.698-12.698v-229.47zM848.95 559.107c29.931 29.931 47.164 69.839 47.164 113.375 0 87.979-71.653 159.632-160.539 159.632-87.979 0-159.632-71.653-159.632-159.632 0-43.536 16.326-83.444 47.164-113.375l45.35 45.35c-18.14 18.14-28.117 41.722-28.117 68.025 0 52.606 42.629 95.235 95.235 95.235 53.513 0 96.142-42.629 96.142-95.235 0-26.303-9.977-49.885-28.117-68.025l45.35-45.35zM598.618 418.523l30.838 56.234c-72.56 39.908-117.91 115.189-117.91 197.725 0 123.352 100.677 223.121 224.028 223.121 124.259 0 224.028-99.77 224.028-223.121 0-79.816-42.629-154.19-110.654-194.097l31.745-55.327c87.979 51.699 143.306 146.934 143.306 249.424 0 158.725-129.701 287.518-288.425 287.518s-287.518-128.794-287.518-287.518c0-106.119 58.048-203.167 150.562-253.959zM831.717 160.028h64.397v64.397h-64.397zM703.83 160.028h64.397v64.397h-64.397zM575.943 160.028h64.397v64.397h-64.397z" />
<glyph unicode="&#xe807;" glyph-name="header-menu-icon7" d="M293.898 449.361h-43.541c-63.497 0.907-123.365 25.399-168.719 67.125-71.66 67.125-98.873 167.812-70.753 262.15 4.535 12.699 14.514 22.677 28.12 25.399 12.699 3.628 27.213 0 36.284-9.978l100.687-100.687 75.289 15.421 15.421 75.289-100.687 100.687c-9.978 9.071-13.606 23.584-9.978 36.284 2.721 13.606 12.699 24.492 25.399 28.12 90.709 27.213 188.676 2.721 255.8-64.404 73.475-73.475 94.338-185.954 54.426-280.292l25.399-26.306-44.448-45.355-58.961 58.961 10.885 20.863c40.819 74.382 27.213 167.812-32.655 227.681-39.005 39.005-92.524 58.961-146.042 55.333l89.802-90.709-29.934-150.578-150.578-29.934-90.709 90.709c-3.628-57.147 18.142-111.573 60.775-151.485 33.562-31.748 78.917-48.983 126.086-49.89h42.633v-64.404zM200.468 887.487v0c0 0 0 0 0 0s0 0 0 0zM211.353 930.12v0 0c0 0 0 0 0 0zM927.957-64.054c-25.399 0-49.89 9.978-68.032 28.12l-288.456 288.456 45.355 45.355 288.456-288.456c12.699-11.792 33.562-11.792 45.355 0 6.35 6.35 9.978 13.606 9.978 22.677 0 8.164-3.628 16.328-9.978 22.677l-358.302 358.302 45.355 45.355 358.302-358.302c18.142-18.142 28.12-42.633 28.12-68.032s-9.978-49.89-28.12-68.032c-18.142-18.142-41.726-28.12-68.032-28.12zM127.9-64.054c-33.562 0-66.218 13.606-89.802 37.191-24.492 24.492-38.098 56.24-38.098 90.709s13.606 66.218 38.098 90.709l206.817 206.817 59.868 19.956 19.956 59.868 72.568 73.475 181.419-181.419-73.475-73.475-59.868-19.956-19.956-59.868-206.817-206.817c-24.492-23.584-56.24-37.191-90.709-37.191zM279.385 305.133v0l-196.839-195.932c-11.792-11.792-18.142-28.12-18.142-45.355s6.35-32.655 18.142-45.355c24.492-23.584 67.125-23.584 90.709 0l196.839 196.839 24.492 75.289 76.196 25.399 17.235 17.235-90.709 90.709-17.235-17.235-25.399-76.196-75.289-25.399zM488.924 379.514l-45.355 45.355 526.114 526.114 45.355-45.355z" />
<glyph unicode="&#xe808;" glyph-name="header-menu-icon8" d="M959.603 960v-96.142h-63.49v96.142h-64.397v-269.378l64.397-63.49v-563.245c0-35.373-29.024-63.49-64.397-63.49s-63.49 28.117-63.49 63.49v768.227c0 70.746-58.048 127.887-127.887 127.887-70.746 0-128.794-57.141-128.794-127.887v-64.397h-511.547v-831.717h640.34v831.717h-64.397v64.397c0 35.373 29.024 63.49 64.397 63.49 34.466 0 63.49-28.117 63.49-63.49v-768.227c0-70.746 57.141-127.887 127.887-127.887s127.887 57.141 127.887 127.887v563.245l64.397 63.49v269.378h-64.397zM575.943 0.397v0h-511.547v703.83h511.547v-703.83zM959.603 716.925v0l-31.745-31.745-31.745 31.745v83.444h63.49v-83.444zM512.453 576.34h-96.142v63.49h-192.283v-63.49h-96.142v-512.453h384.567v512.453zM448.057 128.283v0h-255.773v383.66h96.142v64.397h63.49v-64.397h96.142v-383.66zM255.773 191.773h127.887v64.397h-127.887zM255.773 287.915h127.887v64.397h-127.887zM255.773 384.057h127.887v64.397h-127.887z" />
<glyph unicode="&#xe809;" glyph-name="header-menu-icon9" horiz-adv-x="761" d="M642.052 960h-523.337c-65.304 0-118.817-53.513-118.817-118.817v-786.367c0-65.304 53.513-118.817 118.817-118.817h523.337c65.304 0 118.817 53.513 118.817 118.817v786.367c0 65.304-53.513 118.817-118.817 118.817zM154.087 520.106v0c0 127.887 104.305 232.191 232.191 232.191s232.191-104.305 232.191-232.191c0-108.84-75.281-199.539-175.957-224.935l36.28 58.955c10.884 15.419 9.070 36.28-4.535 49.885s-34.466 15.419-47.164 6.349l-157.818-90.7c-69.839 41.722-115.189 117.003-115.189 200.446zM291.951 259.798v0l82.537 47.164-91.607-152.376c-18.14 24.489-39.908 45.35-64.397 62.583l52.606 29.931 20.861 12.698zM276.532 12.188v0h-175.957c-10.884 0-19.047 9.070-19.047 19.954v174.143c99.77-15.419 178.678-94.328 195.004-194.097zM696.472 54.817v0c0-29.931-24.489-54.42-54.42-54.42h-299.309c-2.721 31.745-10.884 62.583-23.582 91.607l80.723 132.422c156.911 7.256 282.076 136.957 282.076 295.681 0 163.26-132.422 295.681-295.681 295.681s-295.681-132.422-295.681-295.681c0-94.328 44.443-180.492 117.003-235.819l-55.327-30.838c-28.117 9.977-57.141 17.233-87.979 19.047v568.687c0 29.931 24.489 54.42 54.42 54.42h523.337c29.931 0 54.42-24.489 54.42-54.42v-786.367zM144.11 860.23c-24.489 0-44.443-19.954-44.443-44.443s19.954-44.443 44.443-44.443c24.489 0 44.443 19.954 44.443 44.443s-19.954 44.443-44.443 44.443zM144.11 796.74v0c-10.884 0-19.954 9.070-19.954 19.047 0 10.884 9.070 19.954 19.954 19.954 9.977 0 19.047-9.070 19.047-19.954 0-9.977-9.070-19.047-19.047-19.047zM475.164 520.106c0 48.978-39.908 88.886-88.886 88.886s-88.886-39.908-88.886-88.886c0-48.978 39.908-88.886 88.886-88.886s88.886 39.908 88.886 88.886zM386.279 494.71v0c-13.605 0-25.396 11.791-25.396 25.396s11.791 25.396 25.396 25.396c13.605 0 25.396-11.791 25.396-25.396s-11.791-25.396-25.396-25.396zM612.121 855.695c-21.768 0-39.908-18.14-39.908-39.908s18.14-39.001 39.908-39.001c21.768 0 39.001 17.233 39.001 39.001s-17.233 39.908-39.001 39.908zM612.121 791.298v0c-13.605 0-24.489 10.884-24.489 24.489s10.884 24.489 24.489 24.489c12.698 0 24.489-10.884 24.489-24.489s-11.791-24.489-24.489-24.489zM612.121 123.748c-21.768 0-39.908-18.14-39.908-39.908s18.14-39.001 39.908-39.001c21.768 0 39.001 17.233 39.001 39.001s-17.233 39.908-39.001 39.908zM612.121 59.352v0c-13.605 0-24.489 11.791-24.489 24.489 0 13.605 10.884 24.489 24.489 24.489 12.698 0 24.489-10.884 24.489-24.489 0-12.698-11.791-24.489-24.489-24.489z" />
<glyph unicode="&#xe810;" glyph-name="header-menu-icon10" d="M959.603 487.454v152.376h-96.142v127.887c0 106.119-85.258 192.283-191.376 192.283h-31.745c-106.119 0-192.283-86.165-192.283-192.283v-639.433c0-70.746-57.141-127.887-127.887-127.887s-127.887 57.141-127.887 127.887v255.773h63.49v152.376l64.397 127.887v167.795h-64.397v127.887h-191.376v-127.887h-64.397v-167.795l64.397-127.887v-152.376h63.49v-255.773c0-106.119 86.165-192.283 192.283-192.283s191.376 86.165 191.376 192.283v639.433c0 70.746 58.048 127.887 128.794 127.887h31.745c70.746 0 127.887-57.141 127.887-127.887v-127.887h-96.142v-152.376l-63.49-127.887v-231.284h63.49v-192.283h255.773v192.283h64.397v231.284l-64.397 127.887zM192.283 895.603v0-63.49h-64.397v63.49h64.397zM64.397 767.717v0h191.376v-87.979l-63.49-127.887v-103.398h-64.397v103.398l-63.49 127.887v87.979zM768.227 0.397v0 127.887h127.887v-127.887h-127.887zM959.603 191.773v0h-255.773v152.376l64.397 127.887v104.305h127.887v-104.305l63.49-127.887v-152.376z" />
<glyph unicode="&#xe811;" glyph-name="header-menu-icon11" d="M1019.465 514.664c-28.117 226.749-214.051 412.684-440.801 440.801-159.632 20.861-315.635-32.652-429.010-145.12-112.468-113.375-165.981-269.378-145.12-429.010 28.117-226.749 214.051-412.684 440.801-440.801 22.675-2.721 44.443-4.535 66.211-4.535 136.050 0 265.75 52.606 362.799 149.655 112.468 113.375 165.074 269.378 145.12 429.010zM955.975 506.501v0c3.628-26.303 3.628-51.699 2.721-77.095h-122.445l-93.421 160.539 92.514 166.888c64.397-68.025 108.84-155.097 120.631-250.331zM688.411 237.123v0h-185.027l-92.514 160.539 92.514 159.632h185.027l91.607-159.632-91.607-160.539zM570.501 891.975v0c80.723-9.977 154.19-42.629 216.772-91.607l-99.77-178.678h-184.12l-92.514 159.632 65.304 112.468c11.791 0.907 23.582 1.814 36.28 1.814 19.047 0 38.094-0.907 58.048-3.628zM355.543 813.066v0h-102.491c43.536 30.838 90.7 52.606 140.585 67.118l-38.094-67.118zM181.399 749.577v0h174.143l92.514-160.539-92.514-159.632h-186.841l-85.258 147.841c19.047 63.49 52.606 121.538 97.956 172.329zM68.025 389.499v0c-4.535 30.838-4.535 60.769-2.721 90.7l48.071-82.537-35.373-61.676c-4.535 18.14-8.163 35.373-9.977 53.513zM107.026 257.984v0l61.676 107.026h186.841l92.514-159.632-102.491-173.236c-104.305 41.722-190.469 124.259-238.54 225.842zM453.499 4.025v0c-15.419 1.814-29.931 4.535-45.35 8.163l95.235 160.539h184.12l59.862-106.119c-87.072-53.513-189.562-76.188-293.867-62.583zM828.996 131.004v0c-9.977-9.070-19.954-18.14-29.931-26.303l-56.234 99.77 92.514 160.539h116.096c-16.326-87.979-58.048-168.702-122.445-234.005z" />
<glyph unicode="&#xe900;" glyph-name="rubble" horiz-adv-x="834" d="M514.935 960c87.873 0 167.695-35.885 225.434-93.739 57.854-57.854 93.739-137.676 93.739-225.434 0-87.873-35.885-167.695-93.739-225.549-57.739-57.854-137.561-93.739-225.434-93.739h-267.53v-77.292h207.836v-115.017h-207.836v-193.229h-115.017v193.229h-132.385v115.017h132.385v715.753h382.548zM514.935 844.983h-267.53v-408.427h267.53c56.013 0 107.081 23.003 144.117 60.039s60.039 88.103 60.039 144.232c0 56.013-23.003 107.081-60.039 144.117s-88.103 60.039-144.117 60.039z" />
<glyph unicode="&#xe901;" glyph-name="arrow_right" horiz-adv-x="636" d="M316.211 451.631l-279.603 283.234c-54.468 50.837-54.468 134.355 0 188.823 47.206 50.837 130.723 50.837 185.191 0 0 0 0 0 0 0l374.014-377.645c50.837-54.468 50.837-137.986 0-192.454l-374.014-377.645c-50.837-50.837-134.355-50.837-185.191 0 0 0 0 0 0 0-54.468 54.468-54.468 137.986 0 188.823l279.603 286.865z" />
<glyph unicode="&#xe902;" glyph-name="checkbox" horiz-adv-x="1365" d="M556.588 385.081l503.349 522.708c67.759 67.759 179.076 72.598 246.835 4.84 4.84 0 4.84-4.84 4.84-4.84 72.598-72.598 72.598-188.756 0-261.354l-629.186-658.225c-67.759-67.759-174.236-72.598-246.835-4.84-125.837 125.837-256.514 271.034-382.352 401.711-72.598 72.598-72.598 183.916 0 261.354 62.919 67.759 174.236 72.598 246.835 4.84 0 0 4.84-4.84 4.84-4.84l251.674-261.354z" />
<glyph unicode="&#xe903;" glyph-name="arrow-bottom" horiz-adv-x="1638" d="M1580.237 621.67l-621.978-626.074c-76.8-77.619-201.318-77.619-277.914 0l-621.978 626.074c-76.8 77.619-76.8 203.366 0 280.781 76.8 77.619 201.318 77.619 278.118 0l482.918-486.195 482.714 486.195c76.8 77.619 201.318 77.619 278.118 0 76.8-77.414 76.8-203.162 0-280.781z" />
<glyph unicode="&#xe904;" glyph-name="arrow-top" horiz-adv-x="1638" d="M1576.424 277.993l-618.206 618.206c-77.276 85.003-200.917 85.003-278.193 0l-625.933-618.206c-69.548-77.276-69.548-208.644 0-285.92 77.276-77.276 200.917-77.276 278.193 0l486.837 486.837 479.109-486.837c77.276-77.276 200.917-77.276 278.193 0s77.276 208.644 0 285.92z" />
<glyph unicode="&#xe905;" glyph-name="tile" d="M575.546-64v448.454h448.454v-448.454h-448.454zM575.546 960v0h448.454v-448.454h-448.454v448.454zM0 384.454v0h448.454v-448.454h-448.454v448.454zM0 960v0h448.454v-448.454h-448.454v448.454z" />
<glyph unicode="&#xe906;" glyph-name="thumb" d="M960.454-64h-127.092c-36.312 0-65.362 27.234-65.362 63.546v127.092c0 36.312 29.050 65.362 65.362 65.362h127.092c36.312 0 63.546-29.050 63.546-65.362v-127.092c0-36.312-27.234-63.546-63.546-63.546zM960.454 319.092v0h-127.092c-36.312 0-65.362 29.050-65.362 65.362v127.092c0 36.312 29.050 63.546 65.362 63.546h127.092c36.312 0 63.546-27.234 63.546-63.546v-127.092c0-36.312-27.234-65.362-63.546-65.362zM960.454 704v0h-127.092c-36.312 0-65.362 29.050-65.362 63.546v128.908c0 34.496 29.050 63.546 65.362 63.546h127.092c36.312 0 63.546-29.050 63.546-63.546v-128.908c0-34.496-27.234-63.546-63.546-63.546zM575.546-64v0h-127.092c-36.312 0-63.546 27.234-63.546 63.546v127.092c0 36.312 27.234 65.362 63.546 65.362h127.092c36.312 0 65.362-29.050 65.362-65.362v-127.092c0-36.312-29.050-63.546-65.362-63.546zM575.546 319.092v0h-127.092c-36.312 0-63.546 29.050-63.546 65.362v127.092c0 36.312 27.234 63.546 63.546 63.546h127.092c36.312 0 65.362-27.234 65.362-63.546v-127.092c0-36.312-29.050-65.362-65.362-65.362zM575.546 704v0h-127.092c-36.312 0-63.546 29.050-63.546 63.546v128.908c0 34.496 27.234 63.546 63.546 63.546h127.092c36.312 0 65.362-29.050 65.362-63.546v-128.908c0-34.496-29.050-63.546-65.362-63.546zM192.454-64v0h-128.908c-34.496 0-63.546 27.234-63.546 63.546v127.092c0 36.312 29.050 65.362 63.546 65.362h128.908c34.496 0 63.546-29.050 63.546-65.362v-127.092c0-36.312-29.050-63.546-63.546-63.546zM192.454 319.092v0h-128.908c-34.496 0-63.546 29.050-63.546 65.362v127.092c0 36.312 29.050 63.546 63.546 63.546h128.908c34.496 0 63.546-27.234 63.546-63.546v-127.092c0-36.312-29.050-65.362-63.546-65.362zM192.454 704v0h-128.908c-34.496 0-63.546 29.050-63.546 63.546v128.908c0 34.496 29.050 63.546 63.546 63.546h128.908c34.496 0 63.546-29.050 63.546-63.546v-128.908c0-34.496-29.050-63.546-63.546-63.546z" />
<glyph unicode="&#xe907;" glyph-name="list" horiz-adv-x="1170" d="M0-64.467v147.308h1170.167v-147.308h-1170.167zM0 375.383v0h1170.167v-147.308h-1170.167v147.308zM0 667.925v0h1170.167v-147.308h-1170.167v147.308zM0 960.467v0h1170.167v-147.308h-1170.167v147.308z" />
<glyph unicode="&#xe908;" glyph-name="liked-normal" horiz-adv-x="1115" d="M1051.033 409.359l5.796-3.864-36.709-38.641-384.477-394.137c-9.66-11.592-23.185-19.32-36.709-25.117s-28.981-9.66-44.437-9.66c-11.592 0-25.117 1.932-36.709 5.796l-9.66-7.728-34.777 36.709-384.477 394.137-32.845 34.777 3.864 5.796c-15.456 21.253-27.049 44.437-36.709 69.554-15.456 38.641-23.185 81.146-23.185 123.651 0 94.67 38.641 179.68 100.466 241.506s146.835 100.466 241.506 100.466c46.369 0 92.738-11.592 135.243-28.981 27.049-11.592 52.165-27.049 73.418-44.437 25.117 23.185 52.165 40.573 79.214 56.029 46.369 21.253 96.602 34.777 148.768 34.777h1.932c92.738-3.864 177.748-44.437 237.642-108.195s96.602-148.768 96.602-241.506c0-44.437-7.728-88.874-25.117-129.447-9.66-25.117-23.185-48.301-38.641-71.486v0zM564.157 44.202l367.089 376.749v3.864l13.524 13.524c21.253 23.185 38.641 50.233 50.233 79.214s17.388 59.893 17.388 92.738c0 65.69-25.117 127.515-67.622 171.952s-102.398 73.418-168.088 75.35c-34.777 0-69.554-7.728-100.466-23.185-30.913-17.388-59.893-38.641-81.146-67.622l-36.709-48.301-40.573 44.437c-23.185 25.117-50.233 44.437-81.146 56.029-28.981 13.524-61.825 21.253-94.67 21.253-67.622 0-125.583-27.049-170.020-71.486-42.505-42.505-69.554-102.398-69.554-168.088 0-30.913 5.796-59.893 15.456-86.942 11.592-27.049 27.049-52.165 48.301-75.35l30.913-34.777 312.991-322.652 36.709-36.709c0-1.932 1.932-1.932 3.864-3.864 0 0 1.932 0 3.864 0s3.864 0 3.864 0c1.932 1.932 3.864 1.932 3.864 3.864h1.932z" />
<glyph unicode="&#xe909;" glyph-name="liked-full" horiz-adv-x="1115" d="M1051.033 409.359l5.796-3.864-36.709-38.641-384.477-394.137c-9.66-11.592-23.185-19.32-36.709-25.117s-28.981-9.66-44.437-9.66c-11.592 0-25.117 1.932-36.709 5.796l-9.66-7.728-34.777 36.709-384.477 394.137-32.845 34.777 3.864 5.796c-15.456 21.253-27.049 44.437-36.709 69.554-15.456 38.641-23.185 81.146-23.185 123.651 0 94.67 38.641 179.68 100.466 241.506s146.835 100.466 241.506 100.466c46.369 0 92.738-11.592 135.243-28.981 27.049-11.592 52.165-27.049 73.418-44.437 25.117 23.185 52.165 40.573 79.214 56.029 46.369 21.253 96.602 34.777 148.768 34.777h1.932c92.738-3.864 177.748-44.437 237.642-108.195s96.602-148.768 96.602-241.506c0-44.437-7.728-88.874-25.117-129.447-9.66-25.117-23.185-48.301-38.641-71.486v0z" />
<glyph unicode="&#xe90a;" glyph-name="comparison" horiz-adv-x="979" d="M620.926 547.076v2.557c20.454 57.528 40.909 102.272 61.363 147.016 17.898 40.909 34.517 80.539 52.414 126.562l-129.119-47.301c0-3.835 0-7.67 0-12.784 0-31.96-12.784-60.085-34.517-81.818v0 0 0c-12.784-14.062-29.403-24.29-48.579-29.403v-648.15h210.936c17.898 0 33.238-15.341 33.238-33.238 0-19.176-15.341-34.517-33.238-34.517h-488.35c-19.176 0-34.517 15.341-34.517 34.517 0 17.898 15.341 33.238 34.517 33.238h209.658v648.15c-17.898 5.114-34.517 15.341-48.579 29.403v0c-5.114 5.114-8.949 10.227-14.062 16.619l-154.687-56.25h1.278v-1.278l124.005-323.436v-1.278c5.114-15.341 7.67-28.125 7.67-42.187v0c-1.278-14.062-5.114-26.846-12.784-42.187-17.898-31.96-42.187-60.085-72.869-79.261-29.403-17.898-62.642-29.403-99.715-29.403s-71.591 11.506-100.994 30.682c-30.682 17.898-54.971 47.301-72.869 80.539v0c-7.67 14.062-10.227 25.568-11.506 39.63v0c0 12.784 2.557 25.568 7.67 40.909l5.114 15.341 1.278 1.278c20.454 57.528 40.909 103.551 60.085 149.573 17.898 37.074 34.517 75.426 51.136 120.17l-79.261-29.403c-16.619-6.392-37.074 2.557-43.466 20.454s3.835 37.074 20.454 43.466l350.282 126.562v1.278c0 31.96 12.784 61.363 33.238 83.096v0 0 0c21.733 21.733 51.136 34.517 83.096 34.517s61.363-14.062 81.818-34.517v0 0 0c3.835-2.557 5.114-5.114 7.67-8.949l329.828 120.17c17.898 6.392 37.074-2.557 43.466-19.176 6.392-17.898-2.557-37.074-20.454-43.466l-85.653-31.96c0-1.278 0-2.557 1.278-3.835v0l117.613-308.095c1.278-1.278 1.278-3.835 1.278-5.114l3.835-7.67c0-1.278 1.278-2.557 1.278-3.835 5.114-16.619 7.67-29.403 7.67-42.187-1.278-14.062-5.114-26.846-12.784-42.187-17.898-33.238-42.187-61.363-72.869-80.539-29.403-19.176-62.642-29.403-99.715-29.403s-71.591 11.506-100.994 30.682c-30.682 19.176-56.25 47.301-72.869 81.818v0 0c-7.67 14.062-11.506 25.568-11.506 39.63-1.278 12.784 1.278 24.29 6.392 38.352v1.278l1.278 1.278 5.114 14.062zM701.465 570.087l184.090 1.278-88.21 227.556c-17.898-48.579-35.795-88.21-53.693-129.119-14.062-31.96-28.125-63.92-42.187-99.715zM909.844 503.61h-232.669c-1.278-3.835-2.557-6.392-1.278-8.949 0-2.557 1.278-6.392 3.835-11.506v0c11.506-23.011 29.403-43.466 49.858-56.25 17.898-12.784 39.63-19.176 63.92-19.176 23.011 0 44.744 6.392 62.642 19.176 20.454 12.784 38.352 31.96 49.858 54.971 3.835 5.114 5.114 8.949 5.114 12.784v0l-1.278 8.949zM188.826 580.315c-17.898-47.301-34.517-86.931-52.414-127.84-15.341-31.96-29.403-63.92-43.466-99.715h184.090l-88.21 227.556zM68.656 285.004c-1.278-3.835-1.278-6.392-1.278-8.949v0l1.278 8.949zM71.213 264.549v0 0c11.506-23.011 29.403-42.187 49.858-56.25 17.898-11.506 40.909-19.176 63.92-19.176s44.744 6.392 62.642 19.176c20.454 12.784 38.352 31.96 49.858 54.971 3.835 6.392 5.114 10.227 5.114 12.784v1.278c0 1.278 0 3.835-1.278 7.67h-232.669l2.557-20.454zM523.767 798.921c-8.949 8.949-20.454 14.062-34.517 14.062s-25.568-5.114-34.517-14.062v0c-8.949-8.949-15.341-21.733-15.341-35.795 0-12.784 6.392-25.568 15.341-34.517v0 0c8.949-8.949 20.454-14.062 34.517-14.062s25.568 5.114 34.517 14.062v0c8.949 8.949 14.062 21.733 14.062 34.517 0 14.062-5.114 26.846-14.062 35.795v0z" />
<glyph unicode="&#xe90b;" glyph-name="share" horiz-adv-x="683" d="M364.705 194.016c-14.513 8.063-32.252 8.063-46.765 0l-230.602-138.683v725.669h507.969v-725.669l-230.602 138.683zM638.847 960v0h-595.049c-24.189 0-43.54-19.351-43.54-41.928 0 0 0 0 0 0v-938.532c0-16.126 9.676-30.639 22.576-37.090 14.513-8.063 30.639-8.063 43.54 0l275.754 164.485 274.142-164.485c12.901-8.063 30.639-8.063 43.54 0 14.513 6.45 22.576 20.964 22.576 37.090v938.532c0 22.576-19.351 41.928-43.54 41.928zM429.209 502.022v0h-54.828v53.216c0 17.739-14.513 32.252-32.252 32.252-19.351 0-33.865-14.513-33.865-32.252v-53.216h-54.828c-17.739 0-30.639-14.513-32.252-32.252 0-17.739 14.513-32.252 32.252-32.252 0 0 0 0 0 0h54.828v-53.216c0-17.739 16.126-32.252 33.865-32.252s32.252 14.513 32.252 32.252v53.216h54.828c17.739 0 32.252 14.513 32.252 32.252s-14.513 32.252-32.252 32.252v0z" />
<glyph unicode="&#xe90c;" glyph-name="feedback" horiz-adv-x="1472" d="M274.9 484.293h-92.663v109.651h92.663v-109.651zM91.119 484.293h-91.119v109.651h91.119v-109.651zM274.9-63.963h-92.663v109.651h92.663v-109.651zM91.119 119.819h-91.119v108.107h91.119v-108.107zM639.375 119.819h-457.137v108.107h457.137v-108.107zM182.237 302.056h-91.119v109.651h91.119v-109.651zM366.019 302.056h-91.119v109.651h91.119v-109.651zM1345.158 783.903l-679.529-423.161-37.065-21.621-30.888 29.343-501.925 498.836-94.207 92.663h1470.253v-105.018l-1.544-6.178-183.782-869.488-9.266-43.243h-911.186v109.651h823.156l155.983 738.215zM644.008 476.571l602.309 373.741h-980.683l378.374-373.741z" />
<glyph unicode="&#xe90d;" glyph-name="forwCall" horiz-adv-x="1025" d="M128.43 832.731c-30.153-31.27-46.905-71.474-49.138-111.678-2.234-41.321 10.051-83.759 36.854-118.379 67.007-84.875 176.452-194.32 257.977-275.845v0l8.934-8.934c42.438-42.438 92.693-92.693 140.715-138.481 50.255-46.905 100.51-92.693 145.182-127.313 34.62-26.803 77.058-39.087 117.262-36.854 41.321 2.234 81.525 18.985 111.678 49.138l49.138 49.138v16.752l-147.415 147.415-14.518 2.234-84.875-39.087-10.051-4.467-11.168 1.117-37.971 4.467-13.401 1.117-10.051 10.051-311.582 310.465-2.234 13.401-4.467 37.971-1.117 11.168 4.467 11.168 41.321 83.759-1.117 13.401-147.415 147.415h-17.869l-49.138-49.138zM0 724.404c3.35 60.306 27.92 118.379 72.591 163.050l72.591 72.591h82.642l12.285-11.168 176.452-177.568 2.234-13.401 4.467-39.087 2.234-11.168-5.584-10.051-41.321-84.875 2.234-13.401 282.546-280.312 14.518-2.234 83.759 39.087 11.168 4.467 10.051-1.117 39.087-4.467 13.401-1.117 10.051-10.051 179.802-180.919v-82.642l-71.474-71.474c-44.671-44.671-102.744-69.24-163.050-72.591-59.189-3.35-120.612 14.518-170.868 54.722-45.788 35.737-98.277 82.642-149.649 131.78-53.606 50.255-102.744 99.394-142.948 139.598l-8.934 8.934v1.117c-82.642 82.642-194.32 194.32-263.561 282.546-40.204 50.255-58.073 110.561-54.722 169.751zM638.799 833.848h218.889c45.788 0 87.109-17.869 117.262-48.022s48.022-71.474 48.022-117.262c0-44.671-17.869-85.992-48.022-116.145s-71.474-49.138-117.262-49.138h-125.080v79.292h125.080c24.569 0 45.788 10.051 61.423 25.686s25.686 36.854 25.686 60.306c0 24.569-10.051 45.788-25.686 61.423s-36.854 25.686-61.423 25.686h-218.889l58.073-59.189-55.839-54.722-152.999 152.999 27.92 27.92 125.080 126.196 55.839-55.839-58.073-59.189z" />
<glyph unicode="&#xe90e;" glyph-name="cart" horiz-adv-x="1036" d="M818.783 141.142c56.605 0 102.782-46.178 102.782-102.782s-46.178-102.286-102.782-102.286c-56.605 0-102.286 45.681-102.286 102.286s45.681 102.782 102.286 102.782zM408.647 141.142c56.605 0 102.782-46.178 102.782-102.782s-46.178-102.286-102.782-102.286c-56.605 0-102.782 45.681-102.782 102.286s46.178 102.782 102.782 102.782zM49.653 860.619c-27.309 0-49.653 22.344-49.653 49.653s22.344 49.653 49.653 49.653h138.036l11.42-34.261 57.101-170.807h780.054l-15.393-61.57-112.217-447.873h-586.902l-11.42 33.764-193.648 581.44h-67.032zM289.479 655.551l103.279-310.83h438.439l77.956 310.83h-619.674z" />
<glyph unicode="&#xe90f;" glyph-name="pin-white" horiz-adv-x="819" d="M101.672 553.434c1.517 171.425 139.567 309.476 310.993 309.476s309.476-138.050 309.476-309.476c0-207.834-309.476-464.213-309.476-464.213s-310.993 250.311-310.993 464.213zM409.63 960v0zM819.23 550.4c0 226.039-183.561 409.6-409.6 409.6s-409.6-183.561-409.6-409.6c0-283.686 409.6-614.4 409.6-614.4s409.6 339.816 409.6 614.4zM408.113 668.729c66.75 0 121.363-53.096 121.363-119.846s-54.613-121.363-121.363-121.363c-66.75 0-119.846 54.613-119.846 121.363s53.096 119.846 119.846 119.846z" />
<glyph unicode="&#xe910;" glyph-name="delivery-track" horiz-adv-x="1252" d="M561.363 220.013h8.603v625.888h-455.973v-625.888h6.452c10.754 40.866 32.262 75.279 60.223 103.239v0c40.866 43.016 98.938 66.675 161.311 66.675s118.295-23.659 161.311-66.675c27.961-27.961 47.318-62.374 58.072-103.239zM690.412 106.020h-129.049c-10.754-38.715-30.111-75.279-58.072-103.239v0c-43.016-40.866-98.938-66.675-161.311-66.675s-120.446 25.81-161.311 66.675v0 0c-27.961 27.961-49.469 64.525-60.223 103.239h-120.446v853.874h795.802v-113.993h260.249l17.207-27.961 169.915-283.908 8.603-12.905v-415.108h-120.446c-10.754-38.715-32.262-75.279-60.223-103.239v0 0c-40.866-40.866-98.938-66.675-161.311-66.675s-118.295 25.81-159.16 66.675v0c-30.111 27.961-49.469 64.525-60.223 103.239zM795.802 164.092v-2.151c2.151-30.111 15.056-58.072 34.413-79.58v0c19.357-19.357 49.469-32.262 79.58-32.262 32.262 0 60.223 12.905 81.731 32.262v0c19.357 21.508 32.262 49.469 32.262 81.731 0 30.111-12.905 60.223-32.262 79.58v0c-21.508 21.508-49.469 34.413-81.731 34.413-30.111 0-60.223-12.905-79.58-34.413-19.357-19.357-32.262-47.318-34.413-79.58v0zM795.802 731.908v-372.091c34.413 19.357 73.128 30.111 113.993 30.111 64.525 0 120.446-23.659 161.311-66.675v0c27.961-27.961 49.469-62.374 60.223-103.239h6.452v268.852l-146.256 243.042h-195.724zM455.973 164.092c0 30.111-12.905 58.072-34.413 79.58-19.357 21.508-49.469 34.413-79.58 34.413-32.262 0-60.223-12.905-81.731-34.413v0c-19.357-19.357-32.262-49.469-32.262-79.58 0-32.262 12.905-60.223 32.262-81.731v0c21.508-19.357 49.469-32.262 81.731-32.262 30.111 0 60.223 12.905 79.58 32.262v0c21.508 21.508 34.413 49.469 34.413 81.731z" />
<glyph unicode="&#xe911;" glyph-name="downloads" horiz-adv-x="1317" d="M1040.137 564.185l-88.522 91.289-226.838-226.838v531.134h-132.783v-531.134l-237.904 226.838-99.588-91.289 392.818-387.285 392.818 387.285zM1183.985 329.048v-262.801h-1048.436v262.801h-135.55v-392.818h1316.769v392.818h-132.783z" />
<glyph unicode="&#xe912;" glyph-name="characteristics" horiz-adv-x="1229" d="M160.094 464.784l-82.629 72.301-77.465-87.794 170.423-154.93 193.662 232.395-90.376 77.465-113.615-139.437zM160.094 105.863l-82.629 74.883-77.465-90.376 170.423-154.93 193.662 232.395-90.376 77.465-113.615-139.437zM160.094 821.123l-82.629 74.883-77.465-90.376 170.423-154.93 193.662 232.395-90.376 77.465-113.615-139.437zM436.386-7.752h792.724v118.779h-792.724v-118.779zM436.386 826.287v-118.779h792.724v118.779h-792.724zM436.386 348.587h792.724v118.779h-792.724v-118.779z" />
<glyph unicode="&#xe913;" glyph-name="product_description" horiz-adv-x="1229" d="M544.722 849.442l-51.632 111.010h-493.090v-1024.904h1228.852v913.894h-684.13zM1117.842 46.558h-1006.832v802.884h312.376l49.051-111.010h645.405v-691.874zM402.733 247.924h423.386v289.142h-111.010v43.888h-201.366v-43.888h-111.010v-289.142zM611.844 485.434c46.469 0 82.612-36.143 82.612-82.612 0-43.888-36.143-80.030-82.612-80.030-43.888 0-80.030 36.143-80.030 80.030 0 46.469 36.143 82.612 80.030 82.612v0z" />
<glyph unicode="&#xe914;" glyph-name="reviews" horiz-adv-x="1229" d="M102.4 857.6v-764.587l170.667 157.013c6.827 6.827 20.48 13.653 34.133 13.653h819.2v593.92h-1024zM54.613-64c-6.827 0-13.653 0-20.48 6.827-20.48 6.827-34.133 20.48-34.133 40.96v928.427c0 27.307 20.48 47.787 54.613 47.787h1126.4c27.307 0 47.787-20.48 47.787-47.787v-703.147c0-27.307-20.48-47.787-54.613-47.787h-846.507l-238.933-211.627c-13.653-6.827-27.307-13.653-34.133-13.653zM675.84 564.053c0-34.133-27.307-68.267-61.44-68.267s-68.267 27.307-68.267 61.44c0 34.133 27.307 68.267 61.44 68.267 0 0 0 0 0 0 40.96 0 68.267-27.307 68.267-61.44zM907.947 564.053c0-34.133-27.307-61.44-61.44-68.267-34.133 0-61.44 27.307-68.267 61.44 0 34.133 27.307 61.44 61.44 68.267 0 0 0 0 0 0 40.96 0 68.267-27.307 68.267-61.44v0zM450.56 564.053c0-34.133-27.307-61.44-61.44-68.267-34.133 0-61.44 27.307-68.267 61.44 0 34.133 27.307 61.44 61.44 68.267 0 0 0 0 0 0 34.133 0 68.267-27.307 68.267-61.44v0z" />
<glyph unicode="&#xe915;" glyph-name="similar_goods" horiz-adv-x="1149" d="M108.428 747.818c6.415 6.367 19.149 12.733 31.931 12.733h76.546c0-12.733 0-31.882 0-44.616 0-19.149 0-31.931 6.367-51.031h-76.546c-25.515 0-51.031 19.1-51.031 51.031 0 12.733 6.367 25.515 12.733 31.882zM452.911 862.613c82.913 0 146.726-63.764 146.726-140.311 0-82.913-63.813-146.726-140.359-146.726s-146.726 63.813-146.726 140.359c0 0 0 0 0 0 0 76.546 63.813 146.677 140.359 146.677 0 0 0 0 0 0zM1007.883 760.552c25.515 0 51.031-19.1 51.031-51.031 0-12.733-6.415-25.515-12.782-31.882s-19.149-12.733-31.882-12.733h-312.552c0 19.1 6.367 31.882 6.367 51.031 0 19.1 0 31.882-6.367 51.031h306.185v-6.415zM146.726 569.21h121.21c76.546-108.428 223.223-127.577 331.7-51.031 19.1 12.733 38.249 31.882 51.031 51.031h357.216c38.249 0 76.546 12.733 102.062 44.664 25.515 25.515 38.249 63.764 38.249 102.062 0 82.913-63.764 146.677-146.726 146.677h-357.216c-76.546 108.477-223.223 127.577-331.7 51.031-19.1-12.733-31.882-31.882-51.031-51.031h-114.795c-38.297 0-76.546-12.733-102.062-44.616-57.446-57.446-57.446-153.093 0-204.123 25.515-25.515 63.764-44.664 102.062-44.664v0zM1007.883 129.082h-76.546c0 19.1 6.367 31.882 6.367 51.031 0 19.1 0 31.882-6.367 51.031h76.546c12.733 0 25.515-6.415 31.882-12.782s12.733-19.149 12.733-31.882c0-31.882-19.1-51.031-44.616-57.398v0zM695.283 33.387c-82.913 0-146.677 63.764-146.677 140.311 0 82.962 63.764 146.726 140.311 146.726s146.726-63.764 146.726-140.311c0 0 0 0 0 0 0-76.546-63.813-146.726-140.359-146.726v0zM146.726 129.082c-12.782 0-25.515 6.367-31.882 12.733-6.415 6.367-12.782 19.149-12.782 31.882 0 25.515 19.149 51.031 51.031 51.031h312.552c-6.367-19.1-6.367-31.882-6.367-51.031 0-19.1 0-31.882 6.367-51.031h-318.918v6.415zM1007.883 326.79h-121.21c-76.546 108.477-223.272 127.577-331.7 51.031-19.149-12.733-38.297-31.882-51.031-51.031h-357.216c-82.913 0-146.726-63.764-146.726-146.677 0-38.297 12.782-76.546 44.664-102.062 25.515-25.515 63.764-44.664 102.062-44.664h357.216c76.546-108.428 223.272-127.577 331.7-51.031 19.149 12.733 38.249 31.882 51.031 51.031h121.21c82.913 0 146.677 70.18 140.311 153.093 0 38.249-12.733 70.18-44.664 102.062-25.515 25.515-63.764 38.249-95.646 38.249z" />
<glyph unicode="&#xe916;" glyph-name="articles_and_reviews" horiz-adv-x="1078" d="M928.335 217.419c-6.011-5.963-6.011-11.974-6.011-17.937-11.974-47.895-11.974-95.839 0-143.734-23.948 11.974-41.884 29.959-59.869 53.906-5.963 11.974-23.948 17.937-35.921 17.937-6.011 0-11.974 0-17.985-5.963-29.91-11.974-59.869-17.985-95.791-17.985-29.959 0-59.869 6.011-89.828 17.985 179.656 95.791 275.446 311.368 221.54 509.009 137.772-77.854 185.667-251.499 107.813-383.259-6.011-5.963-11.974-17.985-23.948-29.959zM431.3 169.524v0c-41.933 0-83.817 6.011-119.787 17.985-17.937 5.963-41.884 0-53.858-17.985-23.996-35.921-53.906-59.869-95.839-77.854 17.985 59.918 17.985 125.749 6.011 191.63 0 6.011-6.011 11.974-6.011 17.985-47.895 59.869-71.843 137.723-71.843 215.577 0 191.63 149.697 347.338 341.327 347.338 95.791 0 179.656-41.933 245.536-107.813 59.869-65.88 95.791-149.697 95.791-239.525 0-149.697-95.791-287.469-239.525-335.364-35.921-5.963-71.843-11.974-101.802-11.974zM1006.189 169.524c47.895 65.88 71.843 143.734 71.843 221.589 0 173.645-113.776 323.342-287.42 365.274-71.891 125.749-209.615 203.604-359.312 203.604-245.536-5.963-437.166-209.566-431.155-455.102 0-89.828 29.91-179.656 83.817-251.499 17.985-71.891 0-143.734-41.884-197.641-12.022-17.937-12.022-35.921 0-47.895 5.963-11.974 23.948-23.948 35.921-23.948 0 0 5.963 0 5.963 0 83.865 5.963 167.682 47.895 221.589 107.764 35.921-11.974 77.854-17.937 119.738-17.937 23.996 0 53.906 0 77.854 5.963 59.918-41.933 131.761-65.88 209.615-65.88 29.91 0 65.88 6.011 95.791 11.974 47.944-53.858 113.776-83.817 185.667-89.779 0 0 5.963 0 5.963 0 17.985 0 29.959 5.963 35.921 23.948 11.974 17.937 6.011 35.921 0 47.895-29.91 53.906-41.884 107.764-29.91 161.671v0z" />
<glyph unicode="&#xe917;" glyph-name="accessories" d="M466.824-64h92.504v240.941h-92.504v-240.941zM243.092 495.328h-243.092v-94.655h243.092v94.655zM116.168 118.857l66.689-66.689 172.101 172.101-66.689 64.538-172.101-169.95zM116.168 777.143l172.101-172.101 66.689 66.689-172.101 169.95-66.689-64.538zM671.193 224.269l169.95-172.101 66.689 66.689-172.101 169.95-64.538-64.538zM464.672 719.059h94.655v240.941h-94.655v-240.941zM780.908 495.328v-94.655h243.092v94.655h-243.092zM907.832 777.143l-66.689 64.538-172.101-169.95 66.689-66.689 172.101 172.101z" />
<glyph unicode="&#xe918;" glyph-name="gift" horiz-adv-x="960" d="M505.28 448.064l6.72 128h448v-128h-454.72zM505.28 704.064l101.056 256 202.112-204.8-252.672-102.464-50.496 51.264zM0 576.064h448l6.72-128h-454.72v128zM151.552 755.264l202.112 204.8 101.056-256-50.496-51.264-252.672 102.464zM448-63.936h-384v448h384v-448zM896-63.936h-384v448h384v-448z" />
<glyph unicode="&#xe919;" glyph-name="hit" horiz-adv-x="1078" d="M916.211 436.359v56.967c0 15.252 7.006 30.019 19.779 38.373 36.702 24.037 61.063 65.482 61.063 112.586s-24.36 88.549-61.063 112.586c-12.773 8.354-19.779 23.175-19.779 38.427v56.967c92.807-24.091 161.684-107.682 161.684-207.98s-68.877-183.889-161.684-207.926zM714.914 224.552c-9-12.019-23.121-19.079-38.104-19.079h-275.779c-14.929 0-29.049 7.060-38.050 19.079l-137.863 183.835c-6.198 8.246-9.539 18.27-9.539 28.564v475.513c0 26.247 21.288 47.589 47.589 47.589h551.559c26.301 0 47.589-21.342 47.589-47.589v-475.513c0-10.294-3.341-20.318-9.539-28.564l-137.863-183.835zM641.725 690.58h-10.132c-20.857 0-39.235 13.528-45.433 33.361l-1.779 5.767c-13.905 44.571-76.962 44.571-90.867 0l-1.779-5.767c-6.198-19.833-24.63-33.361-45.433-33.361h-10.132c-45.433 0-65.051-57.56-29.049-85.315l12.611-9.701c15.629-12.072 22.205-32.499 16.492-51.416l-2.695-9c-13.528-44.84 39.074-80.141 75.507-50.715 17.408 14.12 42.361 14.12 59.823 0 36.433-29.427 88.98 5.875 75.507 50.715l-2.695 9c-5.713 18.917 0.862 39.343 16.492 51.416l12.611 9.701c36.002 27.756 16.384 85.315-29.049 85.315zM0 644.285c0 100.298 68.824 183.889 161.684 207.98v-57.021c0-15.198-7.006-30.019-19.725-38.373-36.756-24.037-61.117-65.482-61.117-112.586s24.36-88.549 61.117-112.586c12.719-8.354 19.725-23.121 19.725-38.373v-56.967c-92.861 24.037-161.684 107.628-161.684 207.926zM317.063 43.843h120.401c26.301 0 47.589 21.288 47.589 47.535v12.665c0 26.247 21.288 47.589 47.589 47.589h12.611c26.301 0 47.589-21.342 47.589-47.589v-12.665c0-26.247 21.288-47.535 47.589-47.535h120.401c26.301 0 47.589-21.342 47.589-47.589v-12.611c0-26.301-21.288-47.589-47.589-47.589h-443.769c-26.301 0-47.589 21.288-47.589 47.589v12.611c0 26.247 21.288 47.589 47.589 47.589z" />
<glyph unicode="&#xe91a;" glyph-name="stock" horiz-adv-x="1216" d="M1151.872 448.832h-261.184c-13.696 0-24.704-6.144-24.704-19.712 0-13.632 11.008-19.712 24.704-19.712h252.48c12.736-39.488 6.464-78.912-2.944-118.336h-249.536c-13.696 0-24.704-6.144-24.704-19.776s11.008-19.712 24.704-19.712h232c4.672-39.424 6.464-78.848-16.512-118.336h-215.488c-13.696 0-24.704-6.080-24.704-19.712s11.008-19.712 24.704-19.712h175.872c0.064-39.424-9.984-67.712-29.504-93.376-29.184-38.336-75.328-64.384-129.92-64.384h-405.12c-27.52 0-49.728 19.712-68.096 37.248-10.176 9.856-34.112 26.88-34.112 30.272v457.536c0 5.568 19.84 12.8 27.328 21.632 4.608 5.568 8.32 10.688 13.952 15.104 74.368 58.24 123.264 120.128 147.392 188.992 3.648 10.176 9.28 20.672 9.28 29.312v117.312c0 4.544-0.768 11.136 1.536 14.976 25.92 42.368 75.904 60.928 121.664 41.28 60.928-26.24 108.864-125.312 68.928-283.136h235.968c38.912 0 130.048-4.928 130.048-115.776 0-8.064-0.384-41.984-4.032-41.984zM335.488-63.936h-306.816c-13.632 0-24.704 11.008-24.704 24.64v502.912c0 13.632 11.072 24.64 24.704 24.64h306.816c13.632 0 24.704-11.008 24.704-24.64v-502.912c0-13.632-11.072-24.64-24.704-24.64z" />
<glyph unicode="&#xe91b;" glyph-name="10" d="M1001.028 304.699l-177.042-90.694-38.876-194.427-5.015-24.882-214.199 68.152-185.4-126.848-11.796 22.972-90.647 177.042-219.357 43.89 7.689 24.214 60.463 189.985-126.848 185.4 200.015 102.443 38.924 194.475 4.967 24.882 214.199-68.152 185.4 126.848 102.491-200.015 219.309-43.89-7.689-24.214-60.463-189.985 126.848-185.4-22.972-11.796zM793.42 249.394l163.909 83.96-110.18 161.043 3.343 10.602 56.117 176.374-190.94 38.159-89.023 173.795-161.043-110.18-10.602 3.343-176.374 56.117-36.058-180.242-2.101-10.698-173.795-89.023 110.18-161.043-3.343-10.602-56.117-176.374 190.94-38.207 5.062-9.838 83.96-163.909 161.043 110.18 10.602-3.343 176.374-56.117 36.058 180.242 2.149 10.698 9.838 5.062zM357.046 329.009h-37.73v182.057l-55.639-19.008v31.903l88.497 32.572h4.871v-227.524zM583.71 424.526c0-32.667-6.113-57.311-18.339-73.835-12.179-16.62-30.757-24.882-55.687-24.882-24.548 0-42.983 8.071-55.448 24.262-12.37 16.143-18.769 40.070-19.056 71.782v39.306c0 32.667 6.113 57.12 18.339 73.453 12.179 16.334 30.805 24.453 55.83 24.453 24.835 0 43.365-7.976 55.544-23.879 12.226-15.904 18.483-39.688 18.817-71.352v-39.306zM545.837 466.984c0 21.348-2.913 36.918-8.74 46.899-5.827 9.934-15.092 14.853-27.748 14.853-12.322 0-21.444-4.68-27.27-14.089s-8.883-24.071-9.17-44.082v-51.436c0-21.205 2.913-37.013 8.883-47.425 5.922-10.364 15.235-15.569 27.891-15.569 12.179 0 21.109 4.776 26.936 14.375 5.827 9.647 8.883 24.691 9.217 45.18v51.293zM717.149 425.195v-45.562h-22.781v45.562h-45.61v22.781h45.61v45.61h22.781v-45.61h45.61v-22.781z" />
<glyph unicode="&#xe91c;" glyph-name="delivery-all" horiz-adv-x="1483" d="M388.436 606.915c19.474 0 35.303-15.829 35.303-35.353 0-19.474-15.829-35.303-35.303-35.303h-211.87c-19.524 0-35.303 15.829-35.303 35.303 0 19.524 15.779 35.353 35.303 35.353h211.87zM494.346 783.431c19.524 0 35.303-15.779 35.303-35.303 0-19.474-15.779-35.303-35.303-35.303h-388.436c-19.474 0-35.303 15.829-35.303 35.303 0 19.524 15.829 35.303 35.303 35.303h388.436zM988.692 183.175v776.822h-953.388c-19.474 0-35.303-15.829-35.303-35.303 0-19.524 15.829-35.303 35.303-35.303h882.782v-706.216c0-19.524 15.779-35.303 35.303-35.303 19.474 0 35.303 15.779 35.303 35.303zM1306.471 112.569h176.566v323.772l-116.896 311.788h-377.451c-19.524 0-35.303-15.779-35.303-35.303s15.779-35.303 35.303-35.303h328.765l94.974-253.215v-241.131h-105.96c-19.474 0-35.303-15.829-35.303-35.303 0-19.524 15.829-35.303 35.303-35.303zM600.256 112.569h423.739c19.524 0 35.303 15.779 35.303 35.303 0 19.474-15.779 35.303-35.303 35.303h-423.739c-19.474 0-35.303-15.829-35.303-35.303 0-19.524 15.829-35.303 35.303-35.303zM176.566 395.045v-282.476h141.213c19.524 0 35.303 15.779 35.303 35.303 0 19.474-15.779 35.303-35.303 35.303h-70.607v211.87c0 19.474-15.829 35.303-35.303 35.303-19.524 0-35.303-15.829-35.303-35.303zM459.043 359.742c59.172 0 112.102-23.369 150.301-61.569s61.569-91.129 61.569-150.301c0-59.172-23.369-112.152-61.569-150.351s-91.129-61.519-150.301-61.519c-59.172 0-112.102 23.319-150.301 61.519s-61.569 91.179-61.569 150.351c0 59.172 23.369 112.102 61.569 150.301s91.129 61.569 150.301 61.569zM559.41 248.239c-25.366 25.366-60.67 40.846-100.367 40.846s-75.051-15.48-100.417-40.846c-25.317-25.366-40.846-60.67-40.846-100.367s15.529-75.051 40.846-100.417c25.366-25.317 60.72-40.846 100.417-40.846s75.001 15.529 100.367 40.846c25.366 25.366 40.846 60.72 40.846 100.417s-15.48 75.001-40.846 100.367zM1165.258 359.742c59.172 0 112.102-23.369 150.301-61.569s61.569-91.129 61.569-150.301c0-59.172-23.369-112.152-61.569-150.351s-91.129-61.519-150.301-61.519c-59.172 0-112.152 23.319-150.351 61.519s-61.519 91.179-61.519 150.351c0 59.172 23.319 112.102 61.519 150.301s91.179 61.569 150.351 61.569zM1265.625 248.239c-25.366 25.366-60.67 40.846-100.367 40.846s-75.051-15.48-100.417-40.846c-25.317-25.366-40.846-60.67-40.846-100.367s15.529-75.051 40.846-100.417c25.366-25.317 60.72-40.846 100.417-40.846s75.001 15.529 100.367 40.846c25.366 25.366 40.846 60.72 40.846 100.417s-15.48 75.001-40.846 100.367z" />
<glyph unicode="&#xe91d;" glyph-name="many-product" horiz-adv-x="1015" d="M728.594 228.914c-9.342-9.293-24.454-9.293-33.796 0-9.293 9.342-9.293 24.454 0 33.796l114.691 114.642c23.77 23.77 54.337 35.654 84.954 35.654s61.185-11.885 84.954-35.654v0 0c23.77-23.77 35.654-54.337 35.654-84.954s-11.885-61.185-35.654-84.954v0l-236.473-236.473c-17.803-17.803-40.105-29.003-63.532-33.16-23.525-4.157-48.322-1.174-70.918 9.39-11.885 5.576-17.020 19.71-11.494 31.644 5.576 11.885 19.759 17.020 31.644 11.445 13.401-6.26 28.269-7.972 42.551-5.429 13.939 2.445 27.242 9.195 37.953 19.906l236.473 236.424c14.477 14.477 21.667 32.867 21.667 51.207s-7.19 36.73-21.667 51.207v0 0c-14.428 14.428-32.818 21.667-51.158 21.667s-36.779-7.238-51.207-21.667v0l-114.642-114.691zM252.42 319.003c-2.543-10.466-11.934-18.243-23.183-18.243-13.205 0-23.916 10.711-23.916 23.867v0 3.277l0.929 3.277c9.048 31.546 30.764 56.294 58.055 70.869 26.068 13.939 57.321 18.585 87.4 10.956h0.147l0.929-0.245c0.783-0.245 1.614-0.44 2.397-0.685v-0.049l0.391-0.147 322.063-97.719c31.546-9.048 57.076-30.177 72.238-57.272 14.868-26.606 19.906-58.984 11.053-91.361v-0.293c-8.999-31.546-30.128-57.027-57.272-72.238-25.579-14.33-56.538-19.515-87.693-11.983h-3.032l-3.473 1.027c-0.391 0.098-128.287 38.002-222.436 66.956-12.57 3.864-19.612 17.216-15.749 29.785s17.167 19.612 29.736 15.749c83.438-25.677 197.249-59.473 218.426-65.733h1.956l3.424-0.929c19.661-5.38 39.323-2.299 55.511 6.749 16.433 9.195 29.247 24.601 34.725 43.675h0.049c5.282 19.563 2.201 39.127-6.847 55.267-9.195 16.433-24.601 29.247-43.675 34.676l-0.391 0.196-322.063 97.768c-19.025 5.429-38.931 2.69-55.413-6.114-16.042-8.559-28.807-22.889-34.285-41.083zM283.33 382.927l-283.328-180.278 168.441-252.662 107.844 53.897 351.115-46.806c13.059-1.712 24.992 7.483 26.704 20.542 1.712 13.010-7.483 24.992-20.542 26.655l-365.397 48.762-83.242-41.621-118.212 177.294 242.147 154.111c11.102 7.043 14.379 21.764 7.287 32.818-7.043 11.102-21.764 14.33-32.818 7.287zM654.4 530.044c0 26.411-21.422 47.784-47.784 47.784-26.411 0-47.784-21.373-47.784-47.784 0-26.362 21.373-47.735 47.784-47.735 26.362 0 47.784 21.373 47.784 47.735zM463.314 530.044c0 26.411-21.422 47.784-47.784 47.784-26.411 0-47.784-21.373-47.784-47.784 0-26.362 21.373-47.735 47.784-47.735 26.362 0 47.784 21.373 47.784 47.735zM248.312 912.216c-13.156 0-23.867 10.711-23.867 23.916 0 13.156 10.711 23.867 23.867 23.867h64.902l31.84-95.519h363.782l-7.434-29.688-47.784-191.086-4.5-18.096h-274.573l-95.568 286.604h-30.666zM360.997 816.698l47.735-143.302h203.166l35.801 143.302h-286.702z" />
<glyph unicode="&#xe91e;" glyph-name="ru-soft" horiz-adv-x="1255" d="M142.595 960.009h969.643c39.261 0 74.91-16.018 100.719-41.875 25.857-25.81 41.875-61.458 41.875-100.719v-881.424l-325.306 225.49h-786.932c-39.261 0-74.91 16.018-100.719 41.875-25.857 25.81-41.875 61.458-41.875 100.719v513.34c0 39.261 16.018 74.91 41.875 100.719 25.81 25.857 61.458 41.875 100.719 41.875zM1112.237 902.972h-969.643c-23.481 0-44.87-9.649-60.413-25.144-15.495-15.543-25.144-36.932-25.144-60.413v-513.34c0-23.481 9.649-44.87 25.144-60.413 15.543-15.495 36.932-25.144 60.413-25.144h804.423l250.776-173.775v772.672c0 23.481-9.649 44.87-25.144 60.413-15.543 15.495-36.932 25.144-60.413 25.144zM482.635 529.944h-54.946v-108.99h-49.29v283.858h99.816c32.702 0 57.988-7.367 75.765-22.102 17.824-14.687 26.76-35.981 26.76-63.787 0-19.060-4.611-34.936-13.784-47.769-9.174-12.881-21.96-22.72-38.31-29.612l63.74-118.068v-2.519h-52.855l-56.895 108.99zM427.689 569.871h50.621c16.636 0 29.707 4.183 39.023 12.596 9.364 8.366 14.022 19.821 14.022 34.318 0 15.163-4.325 26.95-12.976 35.268-8.556 8.318-21.484 12.596-38.643 12.834h-52.047v-95.016zM835.129 704.813v-189.793c0-30.135-9.649-53.996-28.947-71.63s-44.965-26.428-77.096-26.428c-32.512 0-58.321 8.651-77.429 26-19.060 17.397-28.614 41.447-28.614 72.295v189.556h49.148v-189.556c0-18.918 4.753-33.415 14.402-43.396 9.601-9.982 23.766-14.972 42.493-14.972 37.978 0 56.943 19.963 56.943 59.937v187.987h49.1z" />
<glyph unicode="&#xe91f;" glyph-name="teh-pod" horiz-adv-x="986" d="M105.685 960h775.010c29.122 0 55.519-11.883 74.683-31 19.117-19.164 31-45.608 31-74.683v-918.317l-269.328 213.762h-611.366c-29.122 0-55.519 11.883-74.683 31-19.117 19.164-31 45.561-31 74.683v598.872c0 29.075 11.883 55.519 31 74.683 19.164 19.117 45.561 31 74.683 31zM880.696 889.545h-775.010c-9.629 0-18.459-3.992-24.847-10.38s-10.38-15.218-10.38-24.847v-598.872c0-9.676 3.992-18.459 10.38-24.847s15.218-10.38 24.847-10.38h635.696l9.723-7.703 164.819-130.812v772.615c0 9.629-3.992 18.459-10.38 24.847s-15.218 10.38-24.847 10.38zM211.369 678.178h493.188v70.455h-493.188v-70.455zM211.369 537.267h246.594v70.455h-246.594v-70.455z" />
<glyph unicode="&#xe920;" glyph-name="recommend" horiz-adv-x="970" d="M484.793 960c90.37 0 173.112-36.97 232.381-96.238 59.269-59.856 96.238-142.010 96.238-232.967 0-90.37-36.97-172.525-96.238-232.381-59.269-59.269-142.010-96.238-232.381-96.238-90.957 0-173.112 36.97-232.967 96.238-59.269 59.856-96.238 142.010-96.238 232.381 0 90.957 36.97 173.112 96.238 232.967 59.856 59.269 142.010 96.238 232.967 96.238zM654.971 801.559c-43.425 43.425-103.867 70.418-170.178 70.418-66.897 0-126.753-26.994-170.764-70.418-43.425-44.011-70.418-103.867-70.418-170.764 0-66.311 26.994-126.753 70.418-170.178 44.011-43.425 103.867-70.418 170.764-70.418 66.311 0 126.753 26.994 170.178 70.418s70.418 103.867 70.418 170.178c0 66.897-26.994 126.753-70.418 170.764zM484.793 787.475c86.262 0 156.094-69.832 156.094-156.681 0-86.262-69.832-156.094-156.094-156.094-86.849 0-156.681 69.832-156.681 156.094 0 86.849 69.832 156.681 156.681 156.681zM969.506 166.033l-183.674 218.297-234.141-197.171 211.255-251.159v230.033h206.56zM0.080 168.381l183.674 218.297 234.141-197.171-211.255-250.572v229.446h-206.56z" />
<glyph unicode="&#xe921;" glyph-name="ruble-bold" horiz-adv-x="887" d="M108.451 222.766h-108.36v-163.701h108.36v-123.066h162.153v123.066h206.658v163.701h-206.658v82.044h308.051c169.506 0 308.051 147.447 308.051 327.401 0 180.342-138.546 327.788-308.051 327.788h-470.204v-737.234zM277.183 793.203h240.714c109.908 0 200.079-70.434 200.079-156.735s-90.171-156.735-200.079-156.735h-240.714v313.469z" />
<glyph unicode="&#xe922;" glyph-name="arrow_right1" horiz-adv-x="636" d="M319.789 444.369l279.603-283.234c54.468-50.837 54.468-134.355 0-188.823-47.206-50.837-130.723-50.837-185.191 0 0 0 0 0 0 0l-374.014 377.645c-50.837 54.468-50.837 137.986 0 192.454l374.014 377.645c50.837 50.837 134.355 50.837 185.191 0 0 0 0 0 0 0 54.468-54.468 54.468-137.986 0-188.823l-279.603-286.865z" />
<glyph unicode="&#xe923;" glyph-name="close" d="M631.626 446.405l370.044-366.854c31.9-31.9 31.9-86.131 0-121.221-35.090-31.9-89.321-31.9-121.221 0l-366.854 370.044-370.044-370.044c-31.9-31.9-86.131-31.9-118.031 0-35.090 35.090-35.090 89.321 0 121.221l366.854 366.854-366.854 370.044c-35.090 31.9-35.090 86.131 0 118.031 31.9 35.090 86.131 35.090 118.031 0l370.044-366.854 366.854 366.854c31.9 35.090 86.131 35.090 121.221 0 31.9-31.9 31.9-86.131 0-118.031l-370.044-370.044z" />
<glyph unicode="&#xe924;" glyph-name="dislike" d="M108.788 505.588h-38.376c-38.424 0-70.412-38.376-70.412-76.8 0-44.812 31.988-76.8 70.412-76.8h403.212c-25.6-108.788-32.037-224.012-32.037-339.188-6.388-38.424 25.6-76.8 70.412-76.8 38.424 0 76.8 31.988 76.8 70.412 0 0 0 6.388 0 6.388s70.412 415.988 326.412 415.988h108.788v454.412h-185.588c-70.412 0-217.624 76.8-287.988 76.8h-364.837c-44.763 0-76.8-38.424-76.8-76.8 0-38.424 32.037-70.412 70.412-70.412h-31.988c-44.812 0-76.8-38.376-70.412-76.8 0-38.376 31.988-70.412 70.412-70.412h-38.424c-38.376-12.776-70.363-44.763-70.363-89.576 0-38.424 31.988-70.412 70.363-70.412z" />
<glyph unicode="&#xe925;" glyph-name="like" horiz-adv-x="1025" d="M915.199 390.413h38.375c44.812 0 76.799 38.375 70.411 76.799 0 38.375-31.987 70.362-70.411 70.362h-403.158c25.6 115.223 31.987 230.397 31.987 345.619 6.388 44.812-25.6 76.799-70.411 76.799-38.375 0-70.411-31.987-70.411-70.411 0 0 0-6.388 0-6.388s-70.362-415.982-326.359-415.982h-115.223v-454.406h185.585c70.411 0 217.621-76.799 288.032-76.799h364.783c44.812 0 76.799 38.375 70.411 76.799 0 38.375-32.036 70.411-70.411 70.411h38.375c44.812 0 76.799 38.375 70.411 76.799 0 38.375-31.987 70.362-70.411 70.362h38.424c44.812 0 76.799 38.424 70.411 76.799 0 51.199-32.036 83.235-70.411 83.235z" />
<glyph unicode="&#xe926;" glyph-name="cal" d="M896-64h-768c-70.412 0-128 57.588-128 128v640c0 70.412 57.588 128 128 128h128v63.976c0 38.424 25.6 64.024 64.024 64.024 38.376 0 63.976-25.6 63.976-64.024v-63.976h256v63.976c0 38.424 25.6 64.024 64.024 64.024 38.376 0 63.976-25.6 63.976-64.024v-63.976h128c70.412 0 128-57.588 128-128v-640c0-70.412-57.588-128-128-128zM896 576h-768v-512h768v512z" />
<glyph unicode="&#xe927;" glyph-name="promo" horiz-adv-x="1096" d="M1082.221 422.314l-465.766-472.615c-6.849-6.849-13.699-13.699-27.398-13.699s-20.548 6.849-27.398 13.699-13.699 41.097 0 61.645l390.421 397.271h-910.983c-20.548 0-41.097 13.699-41.097 41.097 0 20.548 20.548 41.097 41.097 41.097h910.983l-390.421 397.271c-13.699 20.548-13.699 47.946 0 61.645s41.097 13.699 61.645 0l458.916-465.766c6.849-13.699 13.699-20.548 13.699-34.247s-6.849-20.548-13.699-27.398z" />
<glyph unicode="&#xe928;" glyph-name="d" horiz-adv-x="863" d="M863.164 280.168c0-28.44-18.863-47.987-47.987-47.987v0c-21.697 0-37.92 10.897-44.566 28.587-2.199 5.815-3.372 12.314-3.372 19.4v249.22l-287.727-179.829v-270.721l310.401 194c22.43 13.976 51.945 7.086 65.921-15.344 13.927-22.381 7.037-51.994-15.344-65.921l-408.916-255.572-25.313 15.784-383.603 239.788c-21.697 13.438-28.831 41.439-16.761 63.575 0.44 0.782-0.489-0.782 0 0-3.812 7.037-5.913 15.491-5.913 25.020l-0.293 335.714c-0.147 7.477 1.906 15.442 6.792 23.945-12.901 22.234-5.864 50.919 16.175 64.602l408.916 255.572 408.916-255.572c21.99-13.683 29.027-42.367 16.126-64.602 4.349-7.525 6.45-15.735 6.45-23.847l0.098-335.811zM92.537 260.768l291.050-181.93v270.721l-287.678 179.829v-249.22c0-6.988-1.271-13.683-3.372-19.4zM763.232 639.826l-331.658 207.292-331.658-207.292 331.658-207.292 331.658 207.292z" />
<glyph unicode="&#xe929;" glyph-name="video" horiz-adv-x="832" d="M-0.012 960l832.024-512-832.024-512z" />
</font>
</defs>
</svg>
