<svg xmlns="http://www.w3.org/2000/svg" width="20" height="16" viewBox="0 0 20 16">
  <defs>
    <style>
      .cls-1 {
        fill: #fff;
        fill-rule: evenodd;
      }
    </style>
  </defs>
  <path id="twitter" class="cls-1" d="M857.6,1748a4.225,4.225,0,0,1,3.243,1.27,6.839,6.839,0,0,0,2.1-.7c0.17-.09.341-0.18,0.511-0.28a4.022,4.022,0,0,1-1.332,1.9,1.911,1.911,0,0,1-.45.32v0.01a7.946,7.946,0,0,0,2.322-.62v0.01a6.663,6.663,0,0,1-1.391,1.57c-0.214.17-.427,0.34-0.641,0.5a11.567,11.567,0,0,1-8.228,11.54,12.42,12.42,0,0,1-5.806.24,15.719,15.719,0,0,1-2.412-.78,9.935,9.935,0,0,1-1.161-.59c-0.121-.07-0.241-0.14-0.361-0.22a6.271,6.271,0,0,0,1.311.05c0.4-.06.8-0.04,1.172-0.13a8.436,8.436,0,0,0,2.462-.87,4.5,4.5,0,0,0,1.111-.72,3.714,3.714,0,0,1-1.221-.21,4.126,4.126,0,0,1-2.6-2.59,4.258,4.258,0,0,0,1.831-.08,3.111,3.111,0,0,1-1.341-.53,3.878,3.878,0,0,1-1.932-3.46c0.14,0.06.28,0.13,0.42,0.19a5.1,5.1,0,0,0,.861.24,1.313,1.313,0,0,0,.561.05h-0.02c-0.207-.24-0.543-0.4-0.751-0.65a4.092,4.092,0,0,1-.921-3.67,4.539,4.539,0,0,1,.44-1.05,0.021,0.021,0,0,1,.021.01,2.7,2.7,0,0,0,.37.42,7.4,7.4,0,0,0,1.221,1.15,12.031,12.031,0,0,0,5.015,2.39,8.082,8.082,0,0,0,1.842.24,3.717,3.717,0,0,1,.02-1.9,4.016,4.016,0,0,1,2.322-2.72,4.965,4.965,0,0,1,.911-0.27Z" transform="translate(-844 -1748)"/>
</svg>
