<svg xmlns="http://www.w3.org/2000/svg" width="22" height="12" viewBox="0 0 22 12">
  <metadata><?xpacket begin="﻿" id="W5M0MpCehiHzreSzNTczkc9d"?>
<x:xmpmeta xmlns:x="adobe:ns:meta/" x:xmptk="Adobe XMP Core 5.6-c142 79.160924, 2017/07/13-01:06:39        ">
   <rdf:RDF xmlns:rdf="http://www.w3.org/1999/02/22-rdf-syntax-ns#">
      <rdf:Description rdf:about=""/>
   </rdf:RDF>
</x:xmpmeta>
                                                                                                    
                                                                                                    
                                                                                                    
                                                                                                    
                                                                                                    
                                                                                                    
                                                                                                    
                                                                                                    
                                                                                                    
                                                                                                    
                                                                                                    
                                                                                                    
                                                                                                    
                                                                                                    
                                                                                                    
                                                                                                    
                                                                                                    
                                                                                                    
                                                                                                    
                                                                                                    
                           
<?xpacket end="w"?></metadata>
<defs>
    <style>
      .cls-1 {
        fill: #fff;
        fill-rule: evenodd;
      }
    </style>
  </defs>
  <path id="Shape_F_3_copy_3" data-name="Shape F_3 copy 3" class="cls-1" d="M722.764,1762.99h1.315a1.126,1.126,0,0,0,.6-0.25,0.881,0.881,0,0,0,.181-0.55s-0.026-1.71.793-1.96,1.844,1.63,2.943,2.36a2.072,2.072,0,0,0,1.462.4L733,1763s1.537-.12.808-1.27a9.385,9.385,0,0,0-2.184-2.43c-1.843-1.63-1.6-1.37.624-4.2,1.351-1.73,1.891-2.78,1.722-3.23a1.361,1.361,0,0,0-1.147-.36H729.5a0.874,0.874,0,0,0-.427.08,0.884,0.884,0,0,0-.292.37,17.4,17.4,0,0,1-1.222,2.49c-1.473,2.4-2.062,2.53-2.3,2.38-0.56-.35-0.42-1.4-0.42-2.14,0-2.32.368-3.29-.716-3.54a6.04,6.04,0,0,0-1.544-.15,7.58,7.58,0,0,0-2.745.27c-0.376.18-.667,0.57-0.49,0.59a1.529,1.529,0,0,1,.976.47,2.988,2.988,0,0,1,.328,1.44s0.195,2.73-.455,3.07c-0.446.23-1.058-.24-2.371-2.42a19.127,19.127,0,0,1-1.181-2.36,1,1,0,0,0-.273-0.36,1.318,1.318,0,0,0-.508-0.19h-3.143a1.085,1.085,0,0,0-.646.21,0.618,0.618,0,0,0-.012.53s2.461,5.56,5.248,8.34A7.794,7.794,0,0,0,722.764,1762.99Z" transform="translate(-712 -1751)"/>
</svg>
