<svg xmlns="http://www.w3.org/2000/svg" width="20" height="14" viewBox="0 0 20 14">
  <metadata><?xpacket begin="﻿" id="W5M0MpCehiHzreSzNTczkc9d"?>
<x:xmpmeta xmlns:x="adobe:ns:meta/" x:xmptk="Adobe XMP Core 5.6-c142 79.160924, 2017/07/13-01:06:39        ">
   <rdf:RDF xmlns:rdf="http://www.w3.org/1999/02/22-rdf-syntax-ns#">
      <rdf:Description rdf:about=""/>
   </rdf:RDF>
</x:xmpmeta>
                                                                                                    
                                                                                                    
                                                                                                    
                                                                                                    
                                                                                                    
                                                                                                    
                                                                                                    
                                                                                                    
                                                                                                    
                                                                                                    
                                                                                                    
                                                                                                    
                                                                                                    
                                                                                                    
                                                                                                    
                                                                                                    
                                                                                                    
                                                                                                    
                                                                                                    
                                                                                                    
                           
<?xpacket end="w"?></metadata>
<defs>
    <style>
      .cls-1 {
        fill: #fff;
        fill-rule: evenodd;
      }
    </style>
  </defs>
  <path id="Icon" class="cls-1" d="M1049,1749h0s-4.2,0-7,.2a2.919,2.919,0,0,0-2.01.84,4.293,4.293,0,0,0-.79,1.98,29.935,29.935,0,0,0-.2,3.22v1.51a29.935,29.935,0,0,0,.2,3.22,4.293,4.293,0,0,0,.79,1.98,3.416,3.416,0,0,0,2.21.85c1.6,0.15,6.8.2,6.8,0.2h0s4.2-.01,7-0.21a2.884,2.884,0,0,0,2-.84,4.352,4.352,0,0,0,.8-1.98,29.935,29.935,0,0,0,.2-3.22v-1.51a29.935,29.935,0,0,0-.2-3.22,4.352,4.352,0,0,0-.8-1.98,2.884,2.884,0,0,0-2-.84c-2.8-.2-7-0.2-7-0.2m-2.09,4.15,5.31,2.75-5.31,2.86v-5.61Z" transform="translate(-1039 -1749)"/>
</svg>
