<svg 
 xmlns="http://www.w3.org/2000/svg"
 xmlns:xlink="http://www.w3.org/1999/xlink"
 width="20px" height="14px">
<path fill-rule="evenodd"  fill="rgb(142, 154, 169)"
 d="M6.000,14.000 L6.000,12.000 L20.000,12.000 L20.000,14.000 L6.000,14.000 ZM6.000,7.000 L20.000,7.000 L20.000,9.000 L6.000,9.000 L6.000,7.000 ZM18.000,6.000 L16.000,6.000 L16.000,4.000 L14.000,4.000 L14.000,2.000 L16.000,2.000 L16.000,-0.000 L18.000,-0.000 L18.000,2.000 L20.000,2.000 L20.000,4.000 L18.000,4.000 L18.000,6.000 ZM6.000,2.000 L12.000,2.000 L12.000,4.000 L6.000,4.000 L6.000,2.000 ZM-0.000,12.000 L3.000,12.000 L3.000,14.000 L-0.000,14.000 L-0.000,12.000 ZM-0.000,7.000 L3.000,7.000 L3.000,9.000 L-0.000,9.000 L-0.000,7.000 ZM-0.000,2.000 L3.000,2.000 L3.000,4.000 L-0.000,4.000 L-0.000,2.000 Z"/>
</svg>