<?xml version="1.0" encoding="UTF-8"?>
<!DOCTYPE svg PUBLIC "-//W3C//DTD SVG 1.1//EN" "http://www.w3.org/Graphics/SVG/1.1/DTD/svg11.dtd">
<!-- Creator: CorelDRAW X7 -->
<svg xmlns="http://www.w3.org/2000/svg" xml:space="preserve" width="20px" height="20px" version="1.1" style="shape-rendering:geometricPrecision; text-rendering:geometricPrecision; image-rendering:optimizeQuality; fill-rule:evenodd; clip-rule:evenodd"
viewBox="0 0 2087 2062"
 xmlns:xlink="http://www.w3.org/1999/xlink">
 <defs>
  <style type="text/css">
   <![CDATA[
    .fil0 {fill:white;fill-rule:nonzero}
   ]]>
  </style>
 </defs>
 <g id="icon">
  <metadata id="CorelCorpID_0Corel-Layer"/>
  <path class="fil0" d="M1649 1649c114,0 207,93 207,207 0,114 -93,206 -207,206 -114,0 -206,-92 -206,-206 0,-114 92,-207 206,-207zm-826 0c114,0 207,93 207,207 0,114 -93,206 -207,206 -114,0 -207,-92 -207,-206 0,-114 93,-207 207,-207zm-723 -1449c-55,0 -100,-45 -100,-100 0,-55 45,-100 100,-100l207 0 71 0 23 69 115 344 1443 0 128 0 -31 124 -207 826 -19 76 -78 0 -1032 0 -72 0 -23 -68 -390 -1171 -135 0zm483 413l208 626 883 0 157 -626 -1248 0z"/>
 </g>
</svg>
