<svg 
 xmlns="http://www.w3.org/2000/svg"
 xmlns:xlink="http://www.w3.org/1999/xlink"
 width="21px" height="16px">
<defs>
<linearGradient id="PSgrad_0" x1="100%" x2="0%" y1="0%" y2="0%">
  <stop offset="0%" stop-color="rgb(69,195,154)" stop-opacity="1" />
  <stop offset="100%" stop-color="rgb(98,209,95)" stop-opacity="1" />
</linearGradient>

</defs>
<path fill-rule="evenodd"  fill="rgb(255, 255, 255)"
 d="M20.335,2.628 L7.893,15.049 C7.512,15.430 6.893,15.430 6.511,15.049 L0.981,9.528 C0.600,9.147 0.600,8.529 0.981,8.148 C1.363,7.767 1.982,7.767 2.364,8.148 L7.202,12.979 L18.953,1.248 C19.334,0.867 19.953,0.867 20.335,1.248 C20.717,1.629 20.717,2.247 20.335,2.628 Z"/>
<path fill="url(#PSgrad_0)"
 d="M20.335,2.628 L7.893,15.049 C7.512,15.430 6.893,15.430 6.511,15.049 L0.981,9.528 C0.600,9.147 0.600,8.529 0.981,8.148 C1.363,7.767 1.982,7.767 2.364,8.148 L7.202,12.979 L18.953,1.248 C19.334,0.867 19.953,0.867 20.335,1.248 C20.717,1.629 20.717,2.247 20.335,2.628 Z"/>
</svg>