<!DOCTYPE svg PUBLIC "-//W3C//DTD SVG 20010904//EN" "http://www.w3.org/TR/2001/REC-SVG-20010904/DTD/svg10.dtd">
<svg version="1.0" xmlns="http://www.w3.org/2000/svg" width="49px" height="49px" viewBox="0 0 490 490" preserveAspectRatio="xMidYMid meet">
<g id="layer101" fill="#00ca79" stroke="none">
 <path d="M132 469 c-50 -25 -107 -88 -123 -136 -6 -19 -9 -68 -7 -108 3 -62 8 -80 33 -117 17 -23 50 -56 74 -73 40 -28 48 -30 136 -30 88 0 96 2 136 30 24 17 57 50 74 74 28 40 30 48 30 136 0 88 -2 96 -30 136 -17 24 -50 57 -74 74 -38 26 -52 30 -124 33 -68 2 -89 -1 -125 -19z m210 -76 c108 -63 103 -239 -10 -301 -156 -87 -327 83 -240 240 49 89 157 116 250 61z"/>
 </g>

</svg>