<?xml version="1.0" encoding="UTF-8"?>
<!DOCTYPE svg PUBLIC "-//W3C//DTD SVG 1.1//EN" "http://www.w3.org/Graphics/SVG/1.1/DTD/svg11.dtd">
<!-- Creator: CorelDRAW X7 -->
<svg xmlns="http://www.w3.org/2000/svg" xml:space="preserve" width="235.714mm" height="235.714mm" version="1.1" style="shape-rendering:geometricPrecision; text-rendering:geometricPrecision; image-rendering:optimizeQuality; fill-rule:evenodd; clip-rule:evenodd"
viewBox="0 0 23571 23571"
 xmlns:xlink="http://www.w3.org/1999/xlink">
 <defs>
  <style type="text/css">
   <![CDATA[
    .fil0 {fill:url(#id0);fill-rule:nonzero}
   ]]>
  </style>
  <linearGradient id="id0" gradientUnits="userSpaceOnUse" x1="23571.4" y1="11785.7" x2="-0" y2="11785.7">
   <stop offset="0" style="stop-opacity:1; stop-color:#45C39A"/>
   <stop offset="1" style="stop-opacity:1; stop-color:#62D15F"/>
  </linearGradient>
 </defs>
 <g id="Слой_x0020_1">
  <metadata id="CorelCorpID_0Corel-Layer"/>
  <path class="fil0" d="M21000 11786c0,-2545 -1031,-4849 -2699,-6516 -1667,-1667 -3971,-2699 -6515,-2699 -2545,0 -4848,1032 -6516,2699 -1667,1667 -2699,3971 -2699,6516 0,2544 1032,4848 2699,6515 1668,1668 3971,2699 6516,2699 2544,0 4848,-1031 6515,-2699 1668,-1667 2699,-3971 2699,-6515zm-881 -8334c2133,2133 3452,5079 3452,8334 0,3254 -1319,6201 -3452,8333 -2132,2133 -5079,3452 -8333,3452 -3255,0 -6201,-1319 -8334,-3452 -2133,-2132 -3452,-5079 -3452,-8333 0,-3255 1319,-6201 3452,-8334 2133,-2133 5079,-3452 8334,-3452 3254,0 6201,1319 8333,3452z"/>
 </g>
</svg>
