<svg 
 xmlns="http://www.w3.org/2000/svg"
 xmlns:xlink="http://www.w3.org/1999/xlink"
 width="24px" height="31px">
<path fill-rule="evenodd"  fill="rgb(54, 57, 139)"
 d="M22.313,7.227 C22.270,6.691 21.827,6.288 21.284,6.288 L18.028,6.288 C17.864,3.104 15.220,0.562 12.000,0.562 C8.780,0.562 6.136,3.104 5.972,6.288 L2.716,6.288 C2.181,6.288 1.739,6.689 1.687,7.224 L0.001,26.220 L0.001,26.300 C0.001,28.581 2.081,30.438 4.637,30.438 L19.363,30.438 C21.919,30.438 23.999,28.581 23.999,26.300 L23.999,26.220 L22.313,7.227 ZM19.363,28.372 L4.637,28.372 C3.239,28.372 2.088,27.459 2.062,26.334 L3.660,8.347 L5.964,8.347 L5.964,10.595 C5.964,11.163 6.426,11.625 6.994,11.625 C7.562,11.625 8.024,11.163 8.024,10.595 L8.024,8.347 L15.975,8.347 L15.975,10.595 C15.975,11.163 16.437,11.625 17.005,11.625 C17.574,11.625 18.036,11.163 18.036,10.595 L18.036,8.347 L20.340,8.347 L21.938,26.341 C21.912,27.462 20.761,28.372 19.363,28.372 ZM12.000,2.622 C14.084,2.622 15.802,4.240 15.963,6.288 L8.037,6.288 C8.198,4.240 9.916,2.622 12.000,2.622 Z"/>
</svg>