<svg 
 xmlns="http://www.w3.org/2000/svg"
 xmlns:xlink="http://www.w3.org/1999/xlink"
 width="24px" height="26px">
<path fill-rule="evenodd"  fill="rgb(54, 57, 139)"
 d="M19.610,20.569 L16.596,20.569 L16.596,22.437 L18.103,22.844 L19.610,22.437 L19.610,20.569 ZM18.462,19.330 L18.969,19.330 L18.969,18.556 L18.462,18.556 L18.462,19.330 ZM21.926,17.048 C20.445,15.790 18.520,15.390 16.656,15.139 L12.003,19.282 L7.349,15.139 C5.485,15.390 3.561,15.790 2.080,17.048 C0.781,18.153 0.006,19.774 0.006,22.164 L0.006,26.000 L24.000,26.000 L24.000,22.164 C24.000,19.774 23.226,18.153 21.926,17.048 ZM17.124,16.694 C18.692,16.934 20.039,17.375 20.989,18.182 C21.959,19.006 22.537,20.264 22.537,22.164 L22.537,24.519 L1.469,24.519 L1.469,22.164 C1.469,20.264 2.047,19.006 3.017,18.182 C3.966,17.375 5.314,16.934 6.882,16.694 L12.003,21.253 L17.124,16.694 ZM16.630,5.942 L15.439,6.939 L8.440,6.939 L7.264,5.955 C8.785,5.701 10.065,5.516 11.437,5.480 C12.890,5.441 14.484,5.565 16.630,5.942 ZM17.004,4.685 C14.696,4.271 12.984,4.136 11.407,4.179 C9.882,4.219 8.517,4.422 6.876,4.699 L6.872,4.548 L8.088,1.962 L15.792,1.962 L17.009,4.547 L17.004,4.685 ZM15.239,12.716 C14.314,13.977 13.915,14.521 12.027,14.521 C10.139,14.521 9.739,13.977 8.814,12.717 C8.727,12.598 7.849,11.416 7.833,11.429 C7.632,11.176 7.571,10.216 7.498,9.794 C7.049,9.535 6.879,8.705 7.233,8.186 L7.159,7.560 L7.978,8.246 L15.901,8.246 L16.855,7.448 L16.828,8.134 C17.088,8.734 17.041,9.311 16.561,9.758 C16.489,10.183 16.419,11.180 16.220,11.430 C16.203,11.416 15.326,12.598 15.239,12.716 ZM12.027,16.001 C14.645,16.001 15.177,15.276 16.411,13.596 C16.511,13.459 17.349,12.383 17.349,12.363 C17.807,11.796 17.849,11.148 17.930,10.458 C18.181,10.130 18.328,9.717 18.390,9.299 C18.465,8.803 18.421,8.268 18.297,7.875 C18.374,7.165 18.345,6.467 18.261,5.759 L18.302,4.262 L16.605,0.655 L13.137,0.655 L13.137,-0.000 L10.741,-0.000 L10.741,0.656 L7.273,0.656 L5.576,4.263 L5.616,5.689 C5.554,6.411 5.652,7.140 5.722,7.859 C5.587,8.217 5.541,8.705 5.619,9.190 C5.688,9.614 5.848,10.061 6.121,10.438 C6.212,11.142 6.232,11.780 6.703,12.363 C6.703,12.383 7.543,13.461 7.642,13.597 C8.876,15.276 9.408,16.001 12.027,16.001 ZM12.004,13.587 C12.723,13.587 13.626,13.135 13.602,12.302 C13.126,12.467 12.558,12.563 11.948,12.563 C11.385,12.563 10.857,12.481 10.405,12.338 C10.408,13.028 11.123,13.587 12.004,13.587 ZM14.236,10.318 C14.687,10.318 15.052,9.949 15.052,9.493 C15.052,9.037 14.687,8.667 14.236,8.667 L14.070,8.684 C14.236,9.045 13.805,9.388 13.498,9.141 C13.448,9.248 13.421,9.368 13.421,9.493 C13.421,9.949 13.786,10.318 14.236,10.318 ZM9.980,10.318 C10.431,10.318 10.796,9.949 10.796,9.493 C10.796,9.037 10.431,8.667 9.980,8.667 L9.814,8.684 C9.981,9.046 9.549,9.388 9.242,9.141 C9.192,9.248 9.164,9.368 9.164,9.493 C9.164,9.949 9.529,10.318 9.980,10.318 ZM16.596,20.337 L19.610,20.337 L19.610,19.563 L16.596,19.563 L16.596,20.337 Z"/>
</svg>