<svg 
 xmlns="http://www.w3.org/2000/svg"
 xmlns:xlink="http://www.w3.org/1999/xlink"
 width="25px" height="25px">
<path fill-rule="evenodd"  fill="rgb(58, 61, 141)"
 d="M13.500,22.010 L13.500,11.171 L22.500,7.489 L22.500,18.328 L13.500,22.010 ZM2.500,7.489 L11.500,11.171 L11.500,22.010 L2.500,18.328 L2.500,7.489 ZM12.500,2.580 L20.858,6.000 L12.500,9.419 L4.141,6.000 L12.500,2.580 ZM23.878,5.074 L12.879,0.574 C12.636,0.475 12.364,0.475 12.121,0.574 L1.121,5.074 C0.746,5.228 0.500,5.593 0.500,6.000 L0.500,18.999 C0.500,19.406 0.746,19.772 1.121,19.925 L12.121,24.425 C12.243,24.475 12.371,24.500 12.500,24.500 C12.629,24.500 12.757,24.475 12.879,24.425 L23.878,19.925 C24.254,19.772 24.500,19.406 24.500,18.999 L24.500,6.000 C24.500,5.593 24.254,5.228 23.878,5.074 Z"/>
</svg>