<?xml version="1.0" encoding="UTF-8"?>
<!DOCTYPE svg PUBLIC "-//W3C//DTD SVG 1.1//EN" "http://www.w3.org/Graphics/SVG/1.1/DTD/svg11.dtd">
<!-- Creator: CorelDRAW 2017 -->
<svg xmlns="http://www.w3.org/2000/svg" xml:space="preserve" width="6.37mm" height="5.338mm" version="1.1" style="shape-rendering:geometricPrecision; text-rendering:geometricPrecision; image-rendering:optimizeQuality; fill-rule:evenodd; clip-rule:evenodd"
viewBox="0 0 637 533.8"
 xmlns:xlink="http://www.w3.org/1999/xlink">
 <defs>
  <style type="text/css">
   <![CDATA[
    .fil0 {fill:#3A3D8D}
   ]]>
  </style>
 </defs>
 <g id="Слой_x0020_1">
  <metadata id="CorelCorpID_0Corel-Layer"/>
  <path class="fil0" d="M499.24 469.31l-76.95 0 58.03 64.49 18.92 -64.49zm28.02 -95.48l-190.88 0 57.81 64.24 114.21 0 18.86 -64.24zm27.49 -93.7l-302.67 0 58.93 65.5 224.52 0 19.22 -65.5zm26.96 -91.91l-412.32 0 58.67 65.21 334.52 0 19.13 -65.21zm27.07 -92.26l-522.4 0 55.71 61.92 448.52 0 18.17 -61.92zm28.17 -96l-636.95 0 58.73 65.28 559.07 0 19.15 -65.28z"/>
 </g>
</svg>
