<svg 
 xmlns="http://www.w3.org/2000/svg"
 xmlns:xlink="http://www.w3.org/1999/xlink"
 width="25px" height="21px">
<path fill-rule="evenodd"  fill="rgb(58, 61, 141)"
 d="M24.489,3.036 C19.484,3.036 14.477,3.036 9.472,3.036 C7.196,3.036 4.217,3.115 2.790,3.036 C2.790,2.941 2.790,2.845 2.790,2.749 C2.694,2.749 2.598,2.749 2.502,2.749 C2.502,2.653 2.502,2.557 2.502,2.462 C2.240,2.346 2.289,2.225 1.928,2.174 C1.891,1.856 1.826,1.916 1.784,1.599 C1.688,1.599 1.592,1.599 1.497,1.599 C1.497,1.504 1.497,1.408 1.497,1.312 C1.234,1.196 1.283,1.075 0.922,1.025 C0.922,0.833 0.922,0.641 0.922,0.450 C0.970,0.450 1.018,0.450 1.066,0.450 C1.149,0.544 0.979,0.566 1.137,0.594 C1.222,0.608 1.253,0.358 1.497,0.450 C1.691,0.523 2.534,0.768 2.934,0.594 C3.410,0.385 5.933,0.594 6.957,0.594 C10.669,0.594 14.382,0.594 18.094,0.594 C20.286,0.593 22.819,0.697 24.776,0.450 C24.867,0.694 24.924,0.903 24.920,1.312 C24.535,1.532 24.473,2.419 24.489,3.036 ZM23.339,6.485 C23.080,6.515 23.016,6.711 22.764,6.629 C22.746,6.623 22.720,6.408 22.405,6.485 C22.328,6.504 22.377,6.659 22.189,6.629 C22.165,6.581 22.142,6.533 22.118,6.485 C16.729,6.485 11.339,6.485 5.951,6.485 C5.951,6.389 5.951,6.294 5.951,6.198 C5.856,6.198 5.760,6.198 5.664,6.198 C5.664,6.102 5.664,6.006 5.664,5.910 C5.360,5.791 4.990,5.436 4.945,5.048 C4.850,5.048 4.754,5.048 4.658,5.048 C4.658,4.952 4.658,4.857 4.658,4.761 C4.438,4.677 4.307,4.562 4.227,4.330 C4.984,3.944 8.617,4.186 9.831,4.186 C14.477,4.186 19.124,4.186 23.770,4.186 C23.844,4.387 23.879,4.337 23.914,4.617 C23.810,4.686 23.366,6.242 23.339,6.485 ZM9.113,9.934 C9.113,9.838 9.113,9.742 9.113,9.647 C9.017,9.647 8.921,9.647 8.825,9.647 C8.825,9.551 8.825,9.455 8.825,9.359 C8.730,9.359 8.634,9.359 8.538,9.359 C8.501,9.041 8.436,9.101 8.394,8.784 C8.250,8.784 8.107,8.784 7.963,8.784 C7.900,8.236 7.547,8.186 7.388,7.779 C9.118,7.564 11.390,7.635 13.352,7.635 C16.489,7.635 19.627,7.635 22.764,7.635 C22.855,7.878 22.912,8.088 22.908,8.497 C22.460,8.775 22.633,9.807 22.189,10.078 C17.927,10.078 13.663,10.078 9.400,10.078 C9.295,9.896 9.368,9.967 9.113,9.934 ZM10.693,11.084 C14.238,11.084 17.783,11.084 21.327,11.084 C21.514,11.165 21.518,11.220 21.902,11.227 C21.872,12.055 21.492,12.585 21.471,13.383 C18.857,13.700 15.317,13.341 12.705,13.670 C12.492,13.198 11.930,13.113 11.843,12.521 C11.747,12.521 11.651,12.521 11.556,12.521 C11.556,12.425 11.556,12.329 11.556,12.233 C11.460,12.233 11.364,12.233 11.268,12.233 C11.268,12.137 11.268,12.042 11.268,11.946 C11.172,11.946 11.077,11.946 10.981,11.946 C10.981,11.850 10.981,11.754 10.981,11.658 C10.885,11.658 10.789,11.658 10.693,11.658 C10.693,11.467 10.693,11.275 10.693,11.084 ZM20.321,16.975 C20.017,17.022 18.048,16.777 17.591,16.975 C17.392,17.061 16.411,17.310 16.010,17.119 C15.760,17.000 15.737,16.854 15.292,16.832 C15.292,16.688 15.292,16.544 15.292,16.401 C15.012,16.292 14.757,16.044 14.717,15.682 C14.621,15.682 14.525,15.682 14.430,15.682 C14.267,15.311 13.923,15.145 13.855,14.676 C14.429,14.472 15.431,14.532 16.226,14.532 C17.687,14.532 19.148,14.532 20.609,14.532 C20.753,14.855 20.894,14.851 20.896,15.395 C20.804,15.450 20.364,16.561 20.321,16.975 ZM19.890,18.125 C19.858,19.041 19.343,19.600 19.315,20.568 C19.172,20.568 19.028,20.568 18.884,20.568 C18.884,20.472 18.884,20.376 18.884,20.280 C18.573,20.152 17.640,19.224 17.591,18.844 C17.495,18.844 17.399,18.844 17.304,18.844 C17.304,18.748 17.304,18.652 17.304,18.556 C17.208,18.556 17.112,18.556 17.016,18.556 C17.016,18.460 17.016,18.364 17.016,18.269 C17.709,18.019 18.964,18.118 19.890,18.125 Z"/>
</svg>