<svg 
 xmlns="http://www.w3.org/2000/svg"
 xmlns:xlink="http://www.w3.org/1999/xlink"
 width="24px" height="17px">
<path fill-rule="evenodd"  fill="rgb(58, 61, 141)"
 d="M23.000,15.000 L20.825,15.000 C20.412,16.163 19.303,17.000 18.000,17.000 C16.697,17.000 15.588,16.163 15.175,15.000 L7.825,15.000 C7.412,16.163 6.303,17.000 5.000,17.000 C3.697,17.000 2.588,16.163 2.175,15.000 L1.000,15.000 C0.448,15.000 -0.000,14.552 -0.000,13.999 C-0.000,13.447 0.448,12.999 1.000,12.999 L2.175,12.999 C2.588,11.836 3.697,10.999 5.000,10.999 C6.303,10.999 7.412,11.836 7.825,12.999 L12.917,12.999 L12.917,2.000 L1.000,2.000 C0.448,2.000 -0.000,1.552 -0.000,1.000 C-0.000,0.447 0.448,-0.001 1.000,-0.001 L13.917,-0.001 C14.469,-0.001 14.917,0.447 14.917,1.000 L14.917,2.833 L19.667,2.833 C19.977,2.833 20.270,2.977 20.459,3.223 L23.793,7.556 C23.927,7.731 24.000,7.946 24.000,8.166 L24.000,13.999 C24.000,14.552 23.552,15.000 23.000,15.000 ZM5.000,12.999 C4.448,12.999 4.000,13.448 4.000,13.999 C4.000,14.551 4.448,15.000 5.000,15.000 C5.551,15.000 6.000,14.551 6.000,13.999 C6.000,13.448 5.551,12.999 5.000,12.999 ZM18.000,15.000 C18.551,15.000 19.000,14.551 19.000,13.999 C19.000,13.448 18.551,12.999 18.000,12.999 C17.448,12.999 17.000,13.448 17.000,13.999 C17.000,14.551 17.448,15.000 18.000,15.000 ZM22.000,8.506 L19.174,4.833 L14.917,4.833 L14.917,12.999 L15.175,12.999 C15.588,11.836 16.697,10.999 18.000,10.999 C19.303,10.999 20.412,11.836 20.825,12.999 L22.000,12.999 L22.000,8.506 ZM0.750,7.291 L4.958,7.291 C5.372,7.291 5.708,7.627 5.708,8.041 C5.708,8.455 5.372,8.791 4.958,8.791 L0.750,8.791 C0.336,8.791 -0.000,8.455 -0.000,8.041 C-0.000,7.627 0.336,7.291 0.750,7.291 ZM0.750,4.291 L7.458,4.291 C7.872,4.291 8.208,4.627 8.208,5.041 C8.208,5.456 7.872,5.791 7.458,5.791 L0.750,5.791 C0.336,5.791 -0.000,5.456 -0.000,5.041 C-0.000,4.627 0.336,4.291 0.750,4.291 Z"/>
</svg>