<svg 
 xmlns="http://www.w3.org/2000/svg"
 xmlns:xlink="http://www.w3.org/1999/xlink"
 width="24px" height="24px">
<path fill-rule="evenodd"  fill="rgb(54, 57, 139)"
 d="M20.500,22.000 L3.500,22.000 L3.500,17.000 L9.000,17.000 L9.000,17.750 C9.000,18.164 9.336,18.500 9.750,18.500 L14.250,18.500 C14.664,18.500 15.000,18.164 15.000,17.750 L15.000,17.000 L20.500,17.000 L20.500,22.000 ZM13.500,15.000 L13.500,17.000 L10.500,17.000 L10.500,15.000 L13.500,15.000 ZM2.000,5.500 L22.000,5.500 L22.000,15.000 L15.000,15.000 L15.000,14.249 C15.000,13.836 14.664,13.500 14.250,13.500 L9.750,13.500 C9.336,13.500 9.000,13.836 9.000,14.249 L9.000,15.000 L2.000,15.000 L2.000,5.500 ZM9.000,2.000 L15.000,2.000 L15.000,3.500 L9.000,3.500 L9.000,2.000 ZM23.000,3.500 L17.000,3.500 L17.000,1.000 C17.000,0.447 16.552,-0.000 16.000,-0.000 L8.000,-0.000 C7.448,-0.000 7.000,0.447 7.000,1.000 L7.000,3.500 L1.000,3.500 C0.448,3.500 -0.000,3.947 -0.000,4.500 L-0.000,16.000 C-0.000,16.552 0.448,17.000 1.000,17.000 L1.500,17.000 L1.500,23.000 C1.500,23.552 1.948,24.000 2.500,24.000 L21.500,24.000 C22.052,24.000 22.500,23.552 22.500,23.000 L22.500,17.000 L23.000,17.000 C23.552,17.000 24.000,16.552 24.000,16.000 L24.000,4.500 C24.000,3.947 23.552,3.500 23.000,3.500 Z"/>
</svg>