<svg 
 xmlns="http://www.w3.org/2000/svg"
 xmlns:xlink="http://www.w3.org/1999/xlink"
 width="24px" height="22px">
<path fill-rule="evenodd"  fill="rgb(54, 57, 139)"
 d="M3.618,15.227 L8.810,13.002 C8.835,12.992 8.856,12.977 8.879,12.964 C9.752,13.612 10.829,14.000 12.000,14.000 C13.170,14.000 14.248,13.612 15.121,12.964 C15.144,12.977 15.165,12.992 15.189,13.002 L20.381,15.227 C20.842,15.424 21.172,15.836 21.264,16.327 L21.793,19.125 L2.207,19.125 L2.735,16.327 C2.828,15.836 3.158,15.424 3.618,15.227 ZM8.750,5.750 C8.750,3.958 10.208,2.500 12.000,2.500 C13.792,2.500 15.250,3.958 15.250,5.750 L15.250,8.750 C15.250,10.542 13.792,12.000 12.000,12.000 C10.208,12.000 8.750,10.542 8.750,8.750 L8.750,5.750 ZM23.772,20.753 C23.790,20.731 23.811,20.710 23.827,20.686 C23.847,20.657 23.862,20.624 23.879,20.592 C23.892,20.567 23.908,20.544 23.919,20.518 C23.930,20.492 23.936,20.464 23.945,20.438 C23.957,20.402 23.970,20.367 23.978,20.331 C23.983,20.309 23.983,20.287 23.986,20.266 C23.992,20.221 23.999,20.177 23.999,20.131 C23.999,20.129 24.000,20.127 24.000,20.125 C24.000,20.094 23.994,20.065 23.991,20.035 C23.988,20.003 23.989,19.971 23.983,19.939 L23.980,19.923 C23.980,19.923 23.980,19.923 23.979,19.923 L23.230,15.956 C23.013,14.809 22.243,13.849 21.169,13.389 L16.527,11.400 C16.983,10.621 17.250,9.718 17.250,8.750 L17.250,5.750 C17.250,2.850 14.899,0.500 12.000,0.500 C9.100,0.500 6.750,2.850 6.750,5.750 L6.750,8.750 C6.750,9.718 7.016,10.621 7.473,11.400 L2.830,13.389 C1.757,13.849 0.987,14.809 0.770,15.956 L0.020,19.923 C0.020,19.923 0.020,19.923 0.020,19.923 L0.017,19.939 C0.011,19.971 0.012,20.003 0.009,20.035 C0.006,20.065 -0.000,20.094 -0.000,20.125 C-0.000,20.127 0.001,20.129 0.001,20.131 C0.001,20.177 0.008,20.221 0.014,20.266 C0.017,20.287 0.017,20.309 0.022,20.331 C0.029,20.367 0.043,20.402 0.055,20.438 C0.064,20.464 0.070,20.492 0.080,20.518 C0.092,20.544 0.108,20.567 0.121,20.592 C0.138,20.624 0.153,20.657 0.173,20.686 C0.189,20.710 0.210,20.731 0.228,20.753 C0.250,20.780 0.270,20.809 0.295,20.833 C0.317,20.855 0.342,20.873 0.367,20.893 C0.392,20.914 0.416,20.937 0.443,20.955 C0.464,20.969 0.487,20.978 0.508,20.991 C0.544,21.011 0.578,21.032 0.616,21.048 C0.634,21.055 0.653,21.058 0.671,21.065 C0.716,21.080 0.761,21.096 0.808,21.105 C0.810,21.106 0.812,21.107 0.814,21.107 C0.871,21.118 0.927,21.122 0.983,21.123 C0.989,21.123 0.994,21.125 1.000,21.125 L23.000,21.125 C23.006,21.125 23.011,21.123 23.017,21.123 C23.073,21.122 23.129,21.118 23.186,21.107 C23.188,21.107 23.190,21.106 23.192,21.105 C23.239,21.096 23.284,21.080 23.329,21.065 C23.347,21.058 23.366,21.055 23.383,21.048 C23.421,21.032 23.456,21.011 23.491,20.991 C23.513,20.978 23.536,20.969 23.556,20.955 C23.584,20.937 23.608,20.914 23.633,20.893 C23.657,20.873 23.683,20.855 23.705,20.833 C23.730,20.809 23.750,20.780 23.772,20.753 Z"/>
</svg>