<svg 
 xmlns="http://www.w3.org/2000/svg"
 xmlns:xlink="http://www.w3.org/1999/xlink"
 width="23px" height="21px">
<path fill-rule="evenodd"  stroke="#95a4b3" stroke-width="2px" stroke-linecap="butt" stroke-linejoin="miter" fill="none"
 d="M19.352,10.874 L19.383,10.906 L11.883,18.621 L11.883,18.621 C11.657,18.853 11.344,18.997 10.999,18.997 C10.654,18.997 10.341,18.853 10.115,18.621 L10.115,18.621 L2.615,10.906 L2.646,10.874 C1.629,9.827 0.999,8.380 0.999,6.783 C0.999,3.587 3.518,0.997 6.624,0.997 C8.402,0.997 9.968,1.863 10.999,3.187 C12.030,1.863 13.596,0.997 15.374,0.997 C18.481,0.997 20.999,3.587 20.999,6.783 C20.999,8.380 20.369,9.827 19.352,10.874 Z"/>
</svg>