<svg 
 xmlns="http://www.w3.org/2000/svg"
 xmlns:xlink="http://www.w3.org/1999/xlink"
 width="15px" height="16px">
<path fill-rule="evenodd"  fill="rgb(255, 255, 255)"
 d="M7.895,7.999 L8.000,5.999 L15.000,5.999 L15.000,7.999 L7.895,7.999 ZM7.895,3.999 L9.474,-0.001 L12.632,3.199 L8.684,4.800 L7.895,3.999 ZM-0.000,5.999 L7.000,5.999 L7.105,7.999 L-0.000,7.999 L-0.000,5.999 ZM2.368,3.199 L5.526,-0.001 L7.105,3.999 L6.316,4.800 L2.368,3.199 ZM7.000,15.999 L1.000,15.999 L1.000,8.999 L7.000,8.999 L7.000,15.999 ZM14.000,15.999 L8.000,15.999 L8.000,8.999 L14.000,8.999 L14.000,15.999 Z"/>
</svg>