<svg 
                                                                xmlns="http://www.w3.org/2000/svg"
                                                                xmlns:xlink="http://www.w3.org/1999/xlink"
                                                                width="20px" height="19px">
                                                               <path fill-rule="evenodd"  fill="rgb(255, 255, 255)"
                                                                d="M17.000,9.716 L17.000,8.659 C17.000,8.376 17.130,8.102 17.367,7.947 C18.048,7.501 18.500,6.732 18.500,5.858 C18.500,4.984 18.048,4.215 17.367,3.769 C17.130,3.614 17.000,3.339 17.000,3.056 L17.000,1.999 C18.722,2.446 20.000,3.997 20.000,5.858 C20.000,7.719 18.722,9.270 17.000,9.716 ZM13.265,13.646 C13.098,13.869 12.836,14.000 12.558,14.000 L11.000,14.000 L9.000,14.000 L7.441,14.000 C7.164,14.000 6.902,13.869 6.735,13.646 L4.177,10.235 C4.062,10.082 4.000,9.896 4.000,9.705 L4.000,0.882 C4.000,0.395 4.395,-0.001 4.883,-0.001 L15.117,-0.001 C15.605,-0.001 16.000,0.395 16.000,0.882 L16.000,9.705 C16.000,9.896 15.938,10.082 15.823,10.235 L13.265,13.646 ZM11.907,4.999 L11.719,4.999 C11.332,4.999 10.991,4.748 10.876,4.380 L10.843,4.273 C10.585,3.446 9.415,3.446 9.157,4.273 L9.124,4.380 C9.009,4.748 8.667,4.999 8.281,4.999 L8.093,4.999 C7.250,4.999 6.886,6.067 7.554,6.582 L7.788,6.762 C8.078,6.986 8.200,7.365 8.094,7.716 L8.044,7.883 C7.793,8.715 8.769,9.370 9.445,8.824 C9.768,8.562 10.231,8.562 10.555,8.824 C11.231,9.370 12.206,8.715 11.956,7.883 L11.906,7.716 C11.800,7.365 11.922,6.986 12.212,6.762 L12.446,6.582 C13.114,6.067 12.750,4.999 11.907,4.999 ZM-0.000,5.858 C-0.000,3.997 1.277,2.446 3.000,1.999 L3.000,3.057 C3.000,3.339 2.870,3.614 2.634,3.769 C1.952,4.215 1.500,4.984 1.500,5.858 C1.500,6.732 1.952,7.501 2.634,7.947 C2.870,8.102 3.000,8.376 3.000,8.659 L3.000,9.716 C1.277,9.270 -0.000,7.719 -0.000,5.858 ZM5.883,16.999 L8.117,16.999 C8.605,16.999 9.000,16.604 9.000,16.117 L9.000,15.882 C9.000,15.395 9.395,14.999 9.883,14.999 L10.117,14.999 C10.605,14.999 11.000,15.395 11.000,15.882 L11.000,16.117 C11.000,16.604 11.395,16.999 11.883,16.999 L14.117,16.999 C14.605,16.999 15.000,17.395 15.000,17.882 L15.000,18.116 C15.000,18.604 14.605,18.999 14.117,18.999 L5.883,18.999 C5.395,18.999 5.000,18.604 5.000,18.116 L5.000,17.882 C5.000,17.395 5.395,16.999 5.883,16.999 Z"/>
                                                               </svg>