<svg
        xmlns="http://www.w3.org/2000/svg"
        xmlns:xlink="http://www.w3.org/1999/xlink"
        width="16px" height="20px">
    <path fill-rule="evenodd"  fill="rgb(54, 57, 139)"
          d="M8.000,19.997 C8.000,19.997 -0.000,13.541 -0.000,7.997 C-0.000,3.579 3.582,-0.003 8.000,-0.003 C12.418,-0.003 16.000,3.579 16.000,7.997 C16.000,13.380 8.000,19.997 8.000,19.997 ZM8.000,1.999 C4.686,1.999 2.000,4.685 2.000,7.998 C2.000,11.312 8.000,16.999 8.000,16.999 C8.000,16.999 14.000,11.312 14.000,7.998 C14.000,4.685 11.314,1.999 8.000,1.999 ZM8.000,10.000 C6.895,10.000 6.000,9.104 6.000,8.000 C6.000,6.895 6.895,6.000 8.000,6.000 C9.104,6.000 10.000,6.895 10.000,8.000 C10.000,9.104 9.104,10.000 8.000,10.000 Z"/>
</svg>