<?xml version="1.0" encoding="UTF-8"?>
<!DOCTYPE svg PUBLIC "-//W3C//DTD SVG 1.1//EN" "http://www.w3.org/Graphics/SVG/1.1/DTD/svg11.dtd">
<!-- Creator: CorelDRAW X7 -->
<svg xmlns="http://www.w3.org/2000/svg" xml:space="preserve" width="31.777mm" height="9.767mm" version="1.1" style="shape-rendering:geometricPrecision; text-rendering:geometricPrecision; image-rendering:optimizeQuality; fill-rule:evenodd; clip-rule:evenodd"
viewBox="0 0 3178 977"
 xmlns:xlink="http://www.w3.org/1999/xlink">
 <defs>
  <style type="text/css">
   <![CDATA[
    .fil1 {fill:#ED1C24}
    .fil2 {fill:white}
    .fil0 {fill:url(#id0)}
   ]]>
  </style>
  <linearGradient id="id0" gradientUnits="userSpaceOnUse" x1="676.95" y1="654.67" x2="469.57" y2="32.45">
   <stop offset="0" style="stop-opacity:1; stop-color:#ED1C24"/>
   <stop offset="1" style="stop-opacity:1; stop-color:#7B0000"/>
  </linearGradient>
 </defs>
 <g id="Слой_x0020_1">
  <metadata id="CorelCorpID_0Corel-Layer"/>
  <g id="_324782459760">
   <path class="fil0" d="M756 104c-35,-32 -74,-56 -115,-74 -47,-18 -169,-58 -322,2 -16,49 -16,127 5,109 51,-44 171,-62 250,-28 138,70 168,305 -28,458 -60,46 -116,90 -185,108 130,27 245,-14 369,-113 116,-92 162,-335 26,-462z"/>
   <path class="fil1" d="M289 191c60,-75 146,-150 227,-189 -30,-2 -69,-4 -100,2 -134,26 -260,98 -339,220 -146,229 -78,533 153,677 62,39 131,64 200,73 97,12 197,-14 285,-57 -88,-2 -201,-12 -285,-54 -312,-157 -342,-424 -141,-672zm945 702l-99 0 0 26c0,12 -9,21 -26,25 -9,1 -23,3 -41,3l0 -180 166 0c16,0 28,2 39,6 16,7 24,14 26,23l2 5 0 56c0,25 -21,36 -67,36zm0 -99l-99 0 0 76 99 0 0 -76zm293 24c-35,0 -51,-8 -51,-24l-78 0 0 99 -67 0 0 -126 9 0c16,0 33,6 51,14 16,-8 35,-14 60,-14 21,0 39,2 55,6 24,5 37,15 37,30l0 14 -16 0 0 1zm211 75l-100 0c-7,0 -16,0 -25,-2 -26,-4 -40,-16 -40,-36l0 -52c0,-25 21,-36 65,-36l100 0c8,0 15,0 20,2 30,2 46,14 46,35l0 53c0,23 -23,36 -66,36zm-1 -99l-99 0 0 76 99 0 0 -76z"/>
   <path class="fil2" d="M3123 628c-16,3 -44,7 -83,7l0 -469 138 0 0 400c0,30 -20,51 -55,62zm-160 79c0,29 -18,50 -55,62 -23,9 -51,12 -81,12l-189 0 0 -12c-2,-18 11,-33 35,-48 14,-7 46,-12 96,-12l56 0 0 -76 -208 0c-20,0 -39,0 -55,-2 -51,-5 -77,-35 -77,-88l0 -243c37,3 65,5 84,7 35,9 53,30 53,63l0 200 203 0 0 -270 138 0 0 407zm-678 -74c-12,0 -28,-2 -44,-3 -46,-7 -69,-29 -69,-67l0 -194 -81 0 0 -69 81 0 0 -136c41,0 67,2 81,5 38,9 55,30 55,60l0 73 101 0c0,8 -2,16 -4,24 -10,30 -42,44 -95,44l0 200 100 0c-1,42 -42,63 -125,63zm-391 -169l146 169 -152 0 -77 -97 -44 53c-25,30 -51,44 -80,44l-118 0 150 -169 -138 -164 145 0 85 90 77 -90 154 0 -148 164zm-378 129c-30,26 -72,40 -125,40l-203 0c-28,0 -56,-5 -83,-16 -37,-14 -54,-37 -54,-65l0 -176c0,-28 17,-50 54,-62 27,-9 53,-14 83,-14l203 0c25,0 51,5 79,14 39,14 59,32 59,56l0 67c0,46 -46,67 -136,67l-205 0 0 66 341 0c1,7 -4,16 -13,23zm-125 -224l-203 0 0 70 203 0 0 -70z"/>
  </g>
 </g>
</svg>
