<svg 
 xmlns="http://www.w3.org/2000/svg"
 xmlns:xlink="http://www.w3.org/1999/xlink"
 width="18px" height="15px">
<path fill-rule="evenodd"  fill="rgb(25, 27, 79)"
 d="M15.982,14.822 C15.902,14.922 15.802,14.983 15.682,14.983 C15.023,15.003 13.545,15.003 11.787,15.003 C9.629,15.003 7.032,14.983 5.014,14.983 C3.816,14.983 2.857,14.983 2.377,14.983 C2.257,14.983 2.158,14.942 2.078,14.842 C0.739,13.215 -0.000,11.166 -0.000,9.077 C-0.020,6.687 0.899,4.417 2.577,2.690 C4.275,0.962 6.553,-0.002 8.970,-0.002 C13.944,-0.002 18.000,4.076 18.000,9.057 C18.000,11.166 17.300,13.175 15.982,14.822 ZM8.970,0.802 C6.772,0.802 4.715,1.685 3.156,3.252 C1.618,4.819 0.779,6.888 0.779,9.077 C0.779,10.925 1.418,12.733 2.557,14.179 C3.077,14.179 3.936,14.179 4.994,14.179 C8.291,14.199 13.744,14.219 15.462,14.179 C16.601,12.713 17.201,10.945 17.201,9.077 C17.201,4.517 13.505,0.802 8.970,0.802 ZM12.426,11.126 L12.885,11.126 L11.607,7.651 L9.329,11.990 L8.710,11.990 L6.433,7.691 L5.174,11.166 L5.574,11.166 L5.574,11.990 L2.997,11.990 L2.997,11.126 L3.436,11.126 L5.973,3.373 L9.030,9.800 L12.126,3.373 L14.603,11.126 L15.063,11.126 L15.063,11.990 L12.426,11.990 L12.426,11.126 Z"/>
</svg>