<svg 
 xmlns="http://www.w3.org/2000/svg"
 xmlns:xlink="http://www.w3.org/1999/xlink"
 width="24px" height="24px">
<path fill-rule="evenodd"  fill="rgb(54, 57, 139)"
 d="M22.500,17.250 L19.623,17.250 C18.873,17.250 18.264,16.640 18.264,15.890 C18.264,15.141 18.873,14.531 19.623,14.531 L22.500,14.531 L22.500,17.250 ZM20.563,22.000 L2.000,22.000 L2.000,9.325 C2.313,9.436 2.649,9.500 3.000,9.500 L19.805,9.500 C19.806,9.500 19.806,9.500 19.807,9.500 L19.807,9.500 L20.563,9.500 L20.563,13.031 L19.623,13.031 C18.046,13.031 16.764,14.314 16.764,15.890 C16.764,17.467 18.046,18.750 19.623,18.750 L20.563,18.750 L20.563,22.000 ZM2.287,5.796 C2.481,5.605 2.735,5.500 3.000,5.500 L4.817,5.500 C4.811,5.615 4.800,5.728 4.800,5.845 C4.800,6.410 4.882,6.966 5.039,7.500 L3.000,7.500 C2.448,7.500 2.000,7.051 2.000,6.500 C2.000,6.234 2.105,5.981 2.287,5.796 ZM10.645,2.000 C12.765,2.000 14.490,3.725 14.490,5.845 C14.490,6.423 14.359,6.986 14.112,7.500 L7.178,7.500 C6.931,6.986 6.800,6.423 6.800,5.845 C6.800,3.725 8.525,2.000 10.645,2.000 ZM18.805,5.500 L18.805,7.500 L16.251,7.500 C16.408,6.966 16.490,6.410 16.490,5.845 C16.490,5.728 16.479,5.615 16.472,5.500 L18.805,5.500 ZM23.250,13.031 L22.563,13.031 L22.563,8.500 C22.563,7.947 22.115,7.500 21.563,7.500 L20.805,7.500 L20.805,4.500 C20.805,3.947 20.357,3.500 19.805,3.500 L15.995,3.500 C15.089,1.442 13.034,-0.000 10.645,-0.000 C8.256,-0.000 6.200,1.442 5.295,3.500 L3.000,3.500 C2.205,3.500 1.454,3.810 0.872,4.383 C0.310,4.954 -0.000,5.706 -0.000,6.500 L-0.000,22.999 C-0.000,23.552 0.448,24.000 1.000,24.000 L21.563,24.000 C22.115,24.000 22.563,23.552 22.563,22.999 L22.563,18.750 L23.250,18.750 C23.664,18.750 24.000,18.414 24.000,17.999 L24.000,13.781 C24.000,13.367 23.664,13.031 23.250,13.031 Z"/>
</svg>