<svg 
 xmlns="http://www.w3.org/2000/svg"
 xmlns:xlink="http://www.w3.org/1999/xlink"
 width="24px" height="18px">
<path fill-rule="evenodd"  fill="rgb(58, 61, 142)"
 d="M21.312,18.000 L2.687,18.000 C1.205,18.000 -0.000,16.760 -0.000,15.235 L-0.000,2.764 C-0.000,1.240 1.205,-0.000 2.687,-0.000 L21.312,-0.000 C22.794,-0.000 24.000,1.240 24.000,2.764 L24.000,15.235 C24.000,16.760 22.794,18.000 21.312,18.000 ZM22.000,2.764 C22.000,2.374 21.692,2.057 21.312,2.057 L2.687,2.057 C2.308,2.057 2.000,2.374 2.000,2.764 L2.000,4.285 L22.000,4.285 L22.000,2.764 ZM22.000,7.371 L2.000,7.371 L2.000,15.235 C2.000,15.625 2.308,15.942 2.687,15.942 L21.312,15.942 C21.692,15.942 22.000,15.625 22.000,15.235 L22.000,7.371 ZM9.250,11.185 L5.125,11.185 C4.711,11.185 4.375,10.840 4.375,10.414 C4.375,9.988 4.711,9.642 5.125,9.642 L9.250,9.642 C9.664,9.642 10.000,9.988 10.000,10.414 C10.000,10.840 9.664,11.185 9.250,11.185 Z"/>
</svg>