<svg 
 xmlns="http://www.w3.org/2000/svg"
 xmlns:xlink="http://www.w3.org/1999/xlink"
 width="24px" height="30px">
<path fill-rule="evenodd"  fill="rgb(58, 61, 142)"
 d="M23.969,28.993 C23.962,29.030 23.951,29.065 23.937,29.100 C23.924,29.143 23.911,29.187 23.898,29.225 L23.898,29.225 C23.877,29.268 23.854,29.309 23.828,29.350 C23.814,29.382 23.797,29.413 23.777,29.443 C23.687,29.581 23.567,29.699 23.426,29.787 C23.394,29.808 23.360,29.827 23.324,29.843 C23.286,29.862 23.241,29.893 23.203,29.906 C23.165,29.918 23.120,29.931 23.076,29.943 C23.040,29.957 23.004,29.967 22.967,29.975 C22.885,29.991 22.802,30.000 22.718,30.000 C22.635,30.000 22.552,29.991 22.470,29.975 C22.433,29.968 22.396,29.957 22.361,29.943 L22.227,29.906 C22.189,29.887 22.151,29.862 22.106,29.843 C22.073,29.827 22.041,29.808 22.010,29.787 C21.939,29.742 21.872,29.690 21.813,29.631 L20.575,28.418 L19.332,29.631 C19.227,29.731 19.106,29.813 18.975,29.875 C18.955,29.887 18.933,29.898 18.911,29.906 C18.891,29.915 18.869,29.921 18.847,29.925 C18.715,29.974 18.574,30.000 18.432,30.000 C18.427,30.000 18.421,30.000 18.416,30.000 C18.340,30.000 18.264,29.992 18.190,29.975 C17.938,29.929 17.707,29.809 17.527,29.631 L16.289,28.418 L15.046,29.631 C14.869,29.810 14.639,29.931 14.389,29.975 C14.312,29.991 14.233,30.000 14.155,30.000 C14.152,30.000 14.149,30.000 14.146,30.000 C14.005,30.000 13.864,29.974 13.732,29.925 C13.708,29.921 13.684,29.915 13.662,29.906 C13.640,29.897 13.618,29.886 13.598,29.875 C13.466,29.813 13.345,29.731 13.241,29.631 L12.003,28.418 L10.760,29.631 C10.757,29.634 10.754,29.636 10.752,29.639 C10.504,29.880 10.180,30.000 9.857,30.000 C9.530,30.000 9.203,29.877 8.955,29.631 L7.718,28.418 L6.474,29.631 C6.297,29.810 6.067,29.931 5.817,29.975 C5.739,29.992 5.661,30.000 5.581,30.000 C5.577,30.000 5.572,30.000 5.568,30.000 C5.426,30.000 5.286,29.974 5.154,29.925 C5.132,29.921 5.110,29.914 5.090,29.906 C5.068,29.897 5.047,29.886 5.026,29.875 C4.894,29.813 4.773,29.731 4.669,29.631 L3.425,28.418 L2.188,29.631 C1.950,29.867 1.626,30.000 1.288,30.000 C1.286,30.000 1.284,30.000 1.282,30.000 C1.116,29.999 0.951,29.967 0.797,29.906 C0.319,29.713 0.007,29.256 0.007,28.750 L0.007,1.250 C0.009,0.560 0.579,0.002 1.282,-0.000 L22.718,-0.000 C23.422,0.002 23.992,0.560 23.994,1.250 L23.994,28.750 C23.992,28.832 23.983,28.913 23.969,28.993 ZM22.718,1.250 L1.282,1.250 L1.282,28.750 L2.523,27.535 L3.423,26.653 L4.325,27.532 L5.564,28.740 L5.575,28.744 L6.818,27.532 L7.720,26.653 L8.619,27.535 L9.857,28.747 L11.104,27.532 L12.006,26.653 L12.905,27.535 L14.132,28.736 L14.149,28.743 L15.390,27.532 L16.292,26.653 L17.191,27.535 L18.426,28.744 L18.428,28.743 L19.676,27.532 L20.578,26.653 L21.477,27.535 L22.707,28.740 C22.708,28.740 22.709,28.741 22.710,28.741 L22.712,28.741 L22.717,28.733 L22.718,28.727 L22.718,1.250 ZM17.616,16.094 L6.384,16.094 C5.856,16.094 5.428,15.779 5.428,15.390 C5.428,15.002 5.856,14.687 6.384,14.687 L17.616,14.687 C18.144,14.687 18.573,15.002 18.573,15.390 C18.573,15.779 18.144,16.094 17.616,16.094 ZM17.616,12.500 L6.384,12.500 C5.856,12.500 5.428,12.150 5.428,11.718 C5.428,11.287 5.856,10.937 6.384,10.937 L17.616,10.937 C18.144,10.937 18.573,11.287 18.573,11.718 C18.573,12.150 18.144,12.500 17.616,12.500 ZM14.427,8.750 L6.384,8.750 C5.856,8.750 5.428,8.400 5.428,7.969 C5.428,7.537 5.856,7.187 6.384,7.187 L14.427,7.187 C14.955,7.187 15.384,7.537 15.384,7.969 C15.384,8.400 14.955,8.750 14.427,8.750 Z"/>
</svg>