<svg 
 xmlns="http://www.w3.org/2000/svg"
 xmlns:xlink="http://www.w3.org/1999/xlink"
 width="23px" height="22px">
<path fill-rule="evenodd"  fill="rgb(54, 57, 139)"
 d="M21.138,12.790 L19.925,11.511 L21.225,10.318 L22.437,11.596 L21.138,12.790 ZM18.192,7.589 L19.492,6.395 L20.705,7.759 L19.405,8.868 L18.192,7.589 ZM16.460,3.666 L17.846,2.472 L19.059,3.837 L17.759,5.031 L16.460,3.666 ZM14.207,0.852 L11.522,3.155 L10.049,1.449 L5.111,5.798 L8.230,9.124 L7.017,10.232 L10.136,13.643 L8.923,14.666 L13.341,19.527 L15.940,17.139 L18.123,19.606 C16.215,21.101 13.803,22.000 11.175,22.000 C5.003,22.000 -0.000,17.075 -0.000,11.000 C-0.000,4.924 5.003,-0.000 11.175,-0.000 C13.215,-0.000 15.121,0.546 16.766,1.485 L15.767,2.387 L14.207,0.852 ZM17.413,14.666 L15.593,12.705 L17.673,10.915 L19.492,12.961 L17.413,14.666 ZM17.759,8.783 L15.680,10.573 L13.861,8.527 L15.940,6.736 L17.759,8.783 ZM15.853,4.860 L13.861,6.565 L12.042,4.604 L14.121,2.814 L15.853,4.860 ZM9.876,3.496 L12.302,6.139 L9.616,8.527 L7.104,5.883 L9.876,3.496 ZM16.027,15.178 L13.428,17.480 L11.002,14.922 L13.688,12.535 L16.027,15.178 ZM11.782,7.930 L14.207,10.659 L11.522,12.961 L9.096,10.403 L11.782,7.930 ZM19.318,14.922 L21.138,16.883 L19.232,18.674 L17.413,16.628 L19.318,14.922 Z"/>
</svg>