<svg 
 xmlns="http://www.w3.org/2000/svg"
 xmlns:xlink="http://www.w3.org/1999/xlink"
 width="25px" height="26px">
<path fill-rule="evenodd"  fill="rgb(54, 57, 139)"
 d="M17.604,18.811 C17.664,18.147 18.237,18.230 18.237,18.230 C18.881,18.262 19.202,19.371 18.730,19.610 C18.257,19.848 17.544,19.475 17.604,18.811 ZM19.926,18.158 C19.655,17.577 19.997,17.504 19.997,17.504 C20.218,17.369 20.549,18.147 20.489,18.521 C20.429,18.894 20.198,18.739 19.926,18.158 ZM20.771,18.013 C20.043,14.503 16.971,14.527 16.971,14.527 C16.971,14.527 17.768,14.357 18.378,14.454 C18.988,14.551 19.645,15.108 19.645,15.108 C19.645,15.108 19.997,13.680 19.997,11.986 C19.997,10.291 19.316,8.814 18.871,7.919 C18.425,7.023 15.868,2.303 10.567,2.255 C5.265,2.206 2.216,8.572 4.726,14.164 C7.236,19.755 13.100,19.755 13.100,19.755 C13.100,19.755 12.866,19.126 12.819,18.593 C12.772,18.061 12.959,17.867 12.959,17.867 C12.959,17.867 13.217,18.448 13.663,19.029 C14.109,19.610 15.328,20.530 16.971,20.772 C18.613,21.014 20.395,21.135 22.460,22.733 C24.524,24.330 24.711,26.000 24.711,26.000 C24.711,26.000 23.187,22.805 19.011,22.079 C14.836,21.353 16.103,22.684 11.833,22.587 C7.564,22.490 4.796,20.336 4.796,20.336 C4.796,20.336 0.855,17.843 0.715,12.421 C0.574,6.999 3.647,3.368 6.696,1.528 C9.746,-0.311 13.575,-0.378 16.619,0.730 C19.662,1.837 23.433,5.607 23.304,10.678 C23.175,15.749 20.771,18.013 20.771,18.013 Z"/>
</svg>