<svg 
 xmlns="http://www.w3.org/2000/svg"
 xmlns:xlink="http://www.w3.org/1999/xlink"
 width="24px" height="28px">
<path fill-rule="evenodd"  fill="rgb(54, 57, 139)"
 d="M15.510,0.337 L1.507,8.496 C1.507,8.496 0.063,9.494 0.019,10.854 C-0.025,12.213 0.019,25.813 0.019,25.813 C0.019,25.813 0.675,27.966 2.557,27.988 C4.439,28.011 21.899,27.988 21.899,27.988 C21.899,27.988 24.000,27.988 24.000,25.903 C24.000,23.818 24.000,11.307 24.000,11.307 C24.000,11.307 23.672,9.584 22.249,9.584 C20.827,9.584 20.412,9.584 20.412,9.584 L20.412,18.741 C20.412,18.741 20.652,20.894 17.873,21.733 C15.095,22.571 4.658,25.540 4.658,25.540 C4.658,25.540 3.432,25.858 3.520,24.906 C3.607,23.954 3.826,24.158 5.708,23.365 C7.590,22.571 16.123,19.104 16.123,19.104 C16.123,19.104 18.136,18.288 18.136,15.658 C18.136,13.030 18.136,12.871 18.136,13.030 C18.136,13.188 18.136,1.878 18.136,1.878 C18.136,1.878 18.552,-0.955 15.510,0.337 ZM13.322,8.134 C13.322,8.134 14.241,7.975 14.285,9.403 C14.329,10.831 12.622,11.692 12.360,11.760 C12.097,11.828 10.981,12.123 11.047,10.581 C11.112,9.040 12.622,7.975 13.322,8.134 Z"/>
</svg>