<?xml version="1.0" encoding="UTF-8"?>
<!DOCTYPE svg PUBLIC "-//W3C//DTD SVG 1.1//EN" "http://www.w3.org/Graphics/SVG/1.1/DTD/svg11.dtd">
<!-- Creator: CorelDRAW X7 -->
<svg xmlns="http://www.w3.org/2000/svg" xml:space="preserve" width="24px" height="24px" version="1.1" style="shape-rendering:geometricPrecision; text-rendering:geometricPrecision; image-rendering:optimizeQuality; fill-rule:evenodd; clip-rule:evenodd"
viewBox="0 0 2503 2485"
 xmlns:xlink="http://www.w3.org/1999/xlink">
 <defs>
  <style type="text/css">
   <![CDATA[
    .fil0 {fill:#36398B}
   ]]>
  </style>
 </defs>
 <g id="Слой_x0020_1">
  <metadata id="CorelCorpID_0Corel-Layer"/>
  <path class="fil0" d="M2494 604c0,-333 -271,-604 -604,-604l-849 0c-271,0 -507,184 -577,438l1032 0c394,0 569,183 569,621l0 980c254,-70 438,-306 438,-578l0 -857 -9 0zm-2485 1277c0,333 271,604 604,604l848 0c272,0 508,-184 578,-437l-1033 0c-393,0 -568,-184 -568,-622l0 -980c-254,70 -438,307 -438,578l0 857 9 0zm1732 -927l0 0c44,-18 114,-61 114,-166 0,-114 -96,-175 -227,-175l-228 0 0 280 -131 0c-184,0 -219,122 -219,192 0,96 53,140 158,193 61,35 140,52 140,122 0,35 -35,88 -114,88l-140 0c17,-35 26,-79 26,-114 0,-44 -17,-228 -271,-228l-201 0 0 700 140 0 0 -306 52 53 385 0c175,0 263,-97 263,-202 0,-35 -9,-70 -18,-96l140 0c219,0 271,-114 271,-192 0,-70 -52,-132 -140,-149zm-892 551l-61 0 0 -227 61 0c79,0 122,52 122,113 0,44 -35,114 -122,114zm542 -437l0 166c-35,-18 -70,-35 -113,-53 -44,-17 -97,-43 -97,-96 0,-26 18,-70 105,-70l53 0 44 0 52 0 -44 53zm140 -333l62 0c105,0 113,70 113,88 0,26 -17,87 -105,87l-70 0 0 -175zm79 473l-79 0 0 -193 79 0c96,0 123,44 123,96 0,44 -35,97 -123,97z"/>
 </g>
</svg>
