<svg 
 xmlns="http://www.w3.org/2000/svg"
 xmlns:xlink="http://www.w3.org/1999/xlink"
 width="24px" height="24px">
<defs>
<filter id="Filter_0">
    <feFlood flood-color="#36398b" flood-opacity="1" result="floodOut" />
    <feComposite operator="atop" in="floodOut" in2="SourceGraphic" result="compOut" />
    <feBlend mode="normal" in="compOut" in2="SourceGraphic" />
</filter>

</defs>
<g filter="url(#Filter_0)">
<path fill-rule="evenodd"  fill="#36398b"
 d="M7.489,14.102 L0.469,9.949 C0.556,9.523 0.644,9.096 0.774,8.686 L7.515,12.571 L21.269,4.667 C21.541,4.993 21.789,5.339 22.026,5.693 L7.489,14.102 ZM1.243,7.433 C1.415,7.050 1.595,6.671 1.804,6.310 L7.462,9.641 L19.337,2.816 C19.696,3.090 20.038,3.384 20.362,3.696 L7.489,11.066 L1.243,7.433 ZM2.548,5.171 C2.795,4.839 3.054,4.517 3.333,4.212 L7.489,6.658 L16.763,1.292 C17.234,1.491 17.682,1.730 18.120,1.986 L7.435,8.215 L2.548,5.171 ZM7.462,15.553 L22.686,6.814 C23.519,8.422 24.000,10.239 24.000,12.175 C24.000,18.705 18.676,24.000 12.107,24.000 C5.539,24.000 0.215,18.705 0.215,12.175 C0.215,11.914 0.260,11.666 0.278,11.410 L7.462,15.553 Z"/>
</g>
</svg>