<svg 
                                                            xmlns="http://www.w3.org/2000/svg"
                                                            xmlns:xlink="http://www.w3.org/1999/xlink"
                                                            width="14px" height="13px">
                                                           <path fill-rule="evenodd"  fill="rgb(255, 255, 255)"
                                                            d="M3.344,6.343 C5.415,6.343 6.733,4.948 6.733,3.194 C6.733,1.420 5.415,0.006 3.344,0.006 C1.291,0.006 -0.008,1.420 -0.008,3.194 C-0.008,4.948 1.291,6.343 3.344,6.343 ZM3.908,12.775 L11.948,0.194 L10.103,0.194 L2.082,12.775 L3.908,12.775 ZM10.630,13.001 C12.683,13.001 14.001,11.605 14.001,9.851 C14.001,8.078 12.683,6.664 10.630,6.664 C8.578,6.664 7.279,8.078 7.279,9.851 C7.279,11.605 8.578,13.001 10.630,13.001 ZM3.344,4.344 C2.760,4.344 2.289,4.005 2.289,3.194 C2.289,2.345 2.760,2.005 3.344,2.005 C3.946,2.005 4.436,2.345 4.436,3.194 C4.436,4.005 3.946,4.344 3.344,4.344 ZM10.630,11.002 C10.028,11.002 9.557,10.681 9.557,9.851 C9.557,9.003 10.028,8.663 10.630,8.663 C11.233,8.663 11.722,9.003 11.722,9.851 C11.722,10.681 11.233,11.002 10.630,11.002 Z"/>
                                                           </svg>