<svg 
 xmlns="http://www.w3.org/2000/svg"
 xmlns:xlink="http://www.w3.org/1999/xlink"
 width="22px" height="12px">
<path fill-rule="evenodd"  fill="rgb(77, 117, 163)"
 d="M10.764,11.993 L12.079,11.993 C12.079,11.993 12.476,11.951 12.679,11.742 C12.866,11.549 12.860,11.188 12.860,11.188 C12.860,11.188 12.834,9.479 13.653,9.230 C14.460,8.985 15.497,10.864 16.596,11.587 C17.427,12.134 18.058,11.993 18.058,11.993 L20.996,11.996 C20.996,11.996 22.533,11.884 21.804,10.726 C21.745,10.631 21.380,9.869 19.620,8.304 C17.777,6.666 18.024,6.931 20.244,4.097 C21.595,2.371 22.135,1.317 21.966,0.866 C21.806,0.436 20.819,0.511 20.819,0.511 L17.503,0.509 C17.503,0.509 17.258,0.486 17.076,0.591 C16.898,0.693 16.784,0.957 16.784,0.957 C16.784,0.957 16.260,2.317 15.562,3.453 C14.089,5.849 13.500,5.977 13.259,5.827 C12.699,5.481 12.839,4.434 12.839,3.691 C12.839,1.368 13.207,0.400 12.123,0.149 C11.764,0.066 11.499,0.011 10.579,0.002 C9.399,-0.010 8.399,0.006 7.834,0.271 C7.458,0.447 7.167,0.841 7.344,0.863 C7.563,0.891 8.058,0.992 8.320,1.334 C8.659,1.776 8.648,2.768 8.648,2.768 C8.648,2.768 8.843,5.502 8.193,5.842 C7.747,6.074 7.135,5.599 5.822,3.425 C5.149,2.311 4.641,1.057 4.641,1.057 C4.641,1.057 4.543,0.827 4.368,0.704 C4.156,0.554 3.860,0.507 3.860,0.507 L0.716,0.508 C0.716,0.508 0.245,0.521 0.071,0.717 C-0.083,0.892 0.059,1.254 0.059,1.254 C0.059,1.254 2.520,6.813 5.307,9.593 C7.862,12.142 10.764,11.993 10.764,11.993 Z"/>
</svg>