<svg 
 xmlns="http://www.w3.org/2000/svg"
 xmlns:xlink="http://www.w3.org/1999/xlink"
 width="20px" height="16px">
<path fill-rule="evenodd"  fill="rgb(64, 153, 255)"
 d="M13.603,-0.001 C15.192,-0.029 16.038,0.542 16.846,1.268 C17.532,1.210 18.423,0.833 18.948,0.570 C19.118,0.478 19.289,0.386 19.459,0.294 C19.159,1.093 18.752,1.718 18.127,2.193 C17.989,2.298 17.851,2.440 17.677,2.507 C17.677,2.511 17.677,2.514 17.677,2.517 C18.568,2.508 19.302,2.112 19.999,1.897 C19.999,1.901 19.999,1.904 19.999,1.907 C19.633,2.481 19.137,3.063 18.608,3.481 C18.394,3.649 18.181,3.816 17.967,3.983 C17.979,4.912 17.953,5.799 17.777,6.580 C16.752,11.119 14.037,14.201 9.739,15.522 C8.196,15.995 5.701,16.190 3.933,15.758 C3.056,15.543 2.264,15.300 1.521,14.980 C1.108,14.802 0.726,14.610 0.360,14.390 C0.239,14.318 0.119,14.246 -0.001,14.174 C0.398,14.186 0.865,14.294 1.310,14.223 C1.714,14.159 2.110,14.176 2.482,14.095 C3.410,13.894 4.234,13.629 4.944,13.219 C5.289,13.021 5.811,12.788 6.055,12.501 C5.594,12.509 5.177,12.404 4.834,12.285 C3.507,11.823 2.734,10.974 2.232,9.698 C2.634,9.741 3.792,9.845 4.063,9.619 C3.557,9.592 3.070,9.303 2.722,9.088 C1.654,8.429 0.784,7.325 0.790,5.626 C0.930,5.691 1.070,5.757 1.210,5.822 C1.479,5.934 1.751,5.993 2.071,6.058 C2.206,6.086 2.477,6.164 2.632,6.108 C2.625,6.108 2.618,6.108 2.612,6.108 C2.405,5.870 2.069,5.712 1.861,5.458 C1.176,4.619 0.534,3.327 0.940,1.790 C1.043,1.399 1.207,1.055 1.380,0.737 C1.387,0.740 1.394,0.743 1.401,0.747 C1.480,0.911 1.658,1.032 1.771,1.170 C2.121,1.597 2.552,1.981 2.992,2.320 C4.491,3.475 5.840,4.185 8.007,4.711 C8.557,4.844 9.193,4.946 9.849,4.947 C9.665,4.417 9.724,3.561 9.869,3.048 C10.234,1.760 11.028,0.831 12.191,0.333 C12.470,0.214 12.778,0.128 13.103,0.058 C13.269,0.038 13.436,0.019 13.603,-0.001 Z"/>
</svg>