<svg 
 xmlns="http://www.w3.org/2000/svg"
 xmlns:xlink="http://www.w3.org/1999/xlink"
 width="19px" height="16px">
<path fill-rule="evenodd"  fill="rgb(255, 255, 255)"
 d="M17.998,7.987 L13.917,7.987 C13.703,7.987 13.531,8.083 13.531,8.295 C13.531,8.508 13.703,8.603 13.917,8.603 L17.862,8.603 C18.061,9.220 17.963,9.836 17.816,10.452 L13.917,10.452 C13.703,10.452 13.531,10.548 13.531,10.761 C13.531,10.974 13.703,11.069 13.917,11.069 L17.542,11.069 C17.615,11.685 17.643,12.301 17.284,12.918 L13.917,12.918 C13.703,12.918 13.531,13.013 13.531,13.226 C13.531,13.439 13.703,13.534 13.917,13.534 L16.665,13.534 C16.666,14.150 16.509,14.592 16.204,14.993 C15.748,15.592 15.027,15.999 14.174,15.999 L7.844,15.999 C7.414,15.999 7.067,15.691 6.780,15.417 C6.621,15.263 6.247,14.997 6.247,14.944 L6.247,7.795 C6.247,7.708 6.557,7.595 6.674,7.457 C6.746,7.370 6.804,7.290 6.892,7.221 C8.054,6.311 8.818,5.344 9.195,4.268 C9.252,4.109 9.340,3.945 9.340,3.810 L9.340,1.977 C9.340,1.906 9.328,1.803 9.364,1.743 C9.769,1.081 10.550,0.791 11.265,1.098 C12.217,1.508 12.966,3.056 12.342,5.522 L16.029,5.522 C16.637,5.522 18.061,5.599 18.061,7.331 C18.061,7.457 18.055,7.987 17.998,7.987 ZM5.242,15.999 L0.448,15.999 C0.235,15.999 0.062,15.827 0.062,15.614 L0.062,7.756 C0.062,7.543 0.235,7.371 0.448,7.371 L5.242,7.371 C5.455,7.371 5.628,7.543 5.628,7.756 L5.628,15.614 C5.628,15.827 5.455,15.999 5.242,15.999 Z"/>
</svg>