<svg 
 xmlns="http://www.w3.org/2000/svg"
 xmlns:xlink="http://www.w3.org/1999/xlink"
 width="16px" height="16px">
<path fill-rule="evenodd"  fill="#8e9aa9"
 d="M15.000,16.000 L13.000,16.000 C12.448,16.000 12.000,15.552 12.000,15.000 L12.000,13.000 C12.000,12.447 12.448,12.000 13.000,12.000 L15.000,12.000 C15.552,12.000 16.000,12.447 16.000,13.000 L16.000,15.000 C16.000,15.552 15.552,16.000 15.000,16.000 ZM15.000,10.000 L13.000,10.000 C12.448,10.000 12.000,9.552 12.000,9.000 L12.000,7.000 C12.000,6.447 12.448,6.000 13.000,6.000 L15.000,6.000 C15.552,6.000 16.000,6.447 16.000,7.000 L16.000,9.000 C16.000,9.552 15.552,10.000 15.000,10.000 ZM15.000,4.000 L13.000,4.000 C12.448,4.000 12.000,3.552 12.000,3.000 L12.000,1.000 C12.000,0.448 12.448,-0.000 13.000,-0.000 L15.000,-0.000 C15.552,-0.000 16.000,0.448 16.000,1.000 L16.000,3.000 C16.000,3.552 15.552,4.000 15.000,4.000 ZM9.000,16.000 L7.000,16.000 C6.448,16.000 6.000,15.552 6.000,15.000 L6.000,13.000 C6.000,12.447 6.448,12.000 7.000,12.000 L9.000,12.000 C9.552,12.000 10.000,12.447 10.000,13.000 L10.000,15.000 C10.000,15.552 9.552,16.000 9.000,16.000 ZM9.000,10.000 L7.000,10.000 C6.448,10.000 6.000,9.552 6.000,9.000 L6.000,7.000 C6.000,6.447 6.448,6.000 7.000,6.000 L9.000,6.000 C9.552,6.000 10.000,6.447 10.000,7.000 L10.000,9.000 C10.000,9.552 9.552,10.000 9.000,10.000 ZM9.000,4.000 L7.000,4.000 C6.448,4.000 6.000,3.552 6.000,3.000 L6.000,1.000 C6.000,0.448 6.448,-0.000 7.000,-0.000 L9.000,-0.000 C9.552,-0.000 10.000,0.448 10.000,1.000 L10.000,3.000 C10.000,3.552 9.552,4.000 9.000,4.000 ZM3.000,16.000 L1.000,16.000 C0.448,16.000 -0.000,15.552 -0.000,15.000 L-0.000,13.000 C-0.000,12.447 0.448,12.000 1.000,12.000 L3.000,12.000 C3.552,12.000 4.000,12.447 4.000,13.000 L4.000,15.000 C4.000,15.552 3.552,16.000 3.000,16.000 ZM3.000,10.000 L1.000,10.000 C0.448,10.000 -0.000,9.552 -0.000,9.000 L-0.000,7.000 C-0.000,6.447 0.448,6.000 1.000,6.000 L3.000,6.000 C3.552,6.000 4.000,6.447 4.000,7.000 L4.000,9.000 C4.000,9.552 3.552,10.000 3.000,10.000 ZM3.000,4.000 L1.000,4.000 C0.448,4.000 -0.000,3.552 -0.000,3.000 L-0.000,1.000 C-0.000,0.448 0.448,-0.000 1.000,-0.000 L3.000,-0.000 C3.552,-0.000 4.000,0.448 4.000,1.000 L4.000,3.000 C4.000,3.552 3.552,4.000 3.000,4.000 Z"/>
</svg>