<?xml version="1.0" encoding="UTF-8"?>
<!DOCTYPE svg PUBLIC "-//W3C//DTD SVG 1.1//EN" "http://www.w3.org/Graphics/SVG/1.1/DTD/svg11.dtd">
<!-- Creator: CorelDRAW X7 -->
<svg xmlns="http://www.w3.org/2000/svg" xml:space="preserve" width="2.908mm" height="3.173mm" version="1.1" style="shape-rendering:geometricPrecision; text-rendering:geometricPrecision; image-rendering:optimizeQuality; fill-rule:evenodd; clip-rule:evenodd"
viewBox="0 0 291 317"
 xmlns:xlink="http://www.w3.org/1999/xlink">
 <defs>
  <style type="text/css">
   <![CDATA[
    .fil0 {fill:#36398B}
   ]]>
  </style>
 </defs>
 <g id="Слой_x0020_1">
  <metadata id="CorelCorpID_0Corel-Layer"/>
  <path class="fil0" d="M257 316c-7,-27 -32,-48 -63,-48l-97 0c-31,0 -57,21 -64,48l-33 1c7,-45 47,-80 97,-80l97 0c49,0 89,34 97,79l-34 0zm-111 -111l0 0c-54,0 -98,-44 -98,-98l0 -9c0,-54 44,-98 98,-98l0 0c54,0 98,44 98,98l0 9c0,54 -44,98 -98,98zm-1 -174c-36,0 -65,32 -65,72 0,39 29,71 65,71 36,0 66,-32 66,-71 0,-40 -30,-72 -66,-72z"/>
 </g>
</svg>
