<svg 
 xmlns="http://www.w3.org/2000/svg"
 xmlns:xlink="http://www.w3.org/1999/xlink"
 width="11px" height="12px">
<path fill-rule="evenodd"  fill="rgb(54, 57, 139)"
 d="M9.737,11.951 C9.472,10.909 8.502,10.136 7.346,10.136 L3.654,10.136 C2.494,10.136 1.521,10.914 1.261,11.960 L9.456,11.952 L0.002,11.992 C0.266,10.267 1.800,8.944 3.654,8.944 L7.346,8.944 C9.183,8.944 10.706,10.243 10.991,11.945 L9.737,11.951 ZM9.737,11.952 L9.456,11.952 L9.737,11.951 C9.737,11.951 9.737,11.951 9.737,11.952 ZM5.523,7.750 L5.508,7.750 C3.467,7.750 1.812,6.095 1.812,4.055 L1.812,3.695 C1.812,1.654 3.467,-0.000 5.508,-0.000 L5.523,-0.000 C7.564,-0.000 9.219,1.654 9.219,3.695 L9.219,4.055 C9.219,6.095 7.564,7.750 5.523,7.750 ZM5.500,1.187 C4.136,1.187 3.031,2.391 3.031,3.875 C3.031,5.359 4.136,6.562 5.500,6.562 C6.863,6.562 7.969,5.359 7.969,3.875 C7.969,2.391 6.863,1.187 5.500,1.187 Z"/>
</svg>